<?xml version="1.0" encoding="utf-8"?>
<!-- Generator: Adobe Illustrator 16.0.0, SVG Export Plug-In . SVG Version: 6.00 Build 0)  -->
<!DOCTYPE svg PUBLIC "-//W3C//DTD SVG 1.1//EN" "http://www.w3.org/Graphics/SVG/1.1/DTD/svg11.dtd">
<svg version="1.1" id="Calque_1" xmlns="http://www.w3.org/2000/svg" xmlns:xlink="http://www.w3.org/1999/xlink" x="0px" y="0px"
	 width="250px" height="400px" viewBox="0 0 250 400" enable-background="new 0 0 250 400" xml:space="preserve">
<path fill="#BFA07F" stroke="#937860" stroke-width="3" stroke-miterlimit="10" d="M127.897,316.529c0,0-2.847,28.159-6.363,38.078
	c-3.517,9.919-0.41,0.584-0.41,0.584l-8.668,13.339l-7.654-12.953l-1.543,0.036c0,0,4.577-5.851,3.634-31.586
	c-0.943-25.734-4.017-39.416-4.017-39.416l-17.153-16.85c0,0-14.835,35.36-15.472,36.626s13.378,21.19,13.378,21.19
	s-3.602,22.142-4.82,27.021c-1.219,4.88-11.715,15.771-11.715,15.771l-6.696-11.745l0.094-4.744c0,0,3.993-19.851,2.277-39.565
	c-1.716-19.715,6.726-39.92,6.726-39.92l19.531-9.464l29.544,25.258L127.897,316.529z"/>
<polygon fill="#FFFFFF" points="113.311,359.429 114.344,364.238 99.119,372.59 92.696,369.054 97.126,359.098 100.749,354.245 
	101.897,353.228 103.188,352.63 105.855,352.854 112.17,356.412 "/>
<path fill="#C4C4C4" d="M112.874,361.147c0,0-11.942,14.034-18.73,5.443c0,0-2.042,8.997-1.762,8.961
	c0.28-0.036,2.987,4.694,2.987,4.694l5.721,1.686l12.562-4.503l4.435-3.402l3.685-4.055l1.863-4.077l-0.184-7.79l-1.418-2.935
	L112.874,361.147z"/>
<g>
	<path fill="#010202" d="M119.346,372.708c0,0-0.012-0.55-0.066-1.36c-0.02-0.404-0.088-0.878-0.118-1.375
		c-0.08-0.499-0.101-1.026-0.191-1.547c-0.087-0.521-0.241-1.033-0.325-1.505c-0.062-0.475,0.026-0.939,0.074-1.339
		c0.095-0.794,0.424-1.436,0.424-1.436l0.193-0.049c0,0,0.544,0.42,0.96,1.219c0.23,0.395,0.353,0.882,0.423,1.414
		c0.063,0.535-0.121,1.109-0.15,1.67c-0.104,1.124-0.338,2.223-0.583,3.025c-0.221,0.806-0.445,1.319-0.446,1.319L119.346,372.708z"
		/>
</g>
<g>
	<path fill="#010202" d="M112.001,378.383c0,0,0.131-3.109,0.124-6.15c0.011-0.762-0.147-1.519-0.119-2.219
		c0.006-0.695,0.084-1.338,0.217-1.905c0.094-0.556,0.177-1.026,0.291-1.377c0.101-0.348,0.193-0.562,0.193-0.562l0.196-0.039
		c0,0,0.138,0.169,0.32,0.49c0.093,0.16,0.193,0.36,0.3,0.595c0.095,0.233,0.23,0.507,0.298,0.803
		c0.145,0.587,0.273,1.293,0.269,2.042c-0.026,0.371-0.085,0.753-0.159,1.138c-0.069,0.384-0.14,0.772-0.209,1.162
		c-0.147,0.772-0.26,1.548-0.447,2.259c-0.16,0.715-0.336,1.376-0.501,1.938c-0.308,1.13-0.575,1.863-0.575,1.863L112.001,378.383z"
		/>
</g>
<g>
	<path fill="#010202" d="M115.969,375.681c0,0,0.029-0.659,0.038-1.638c0.004-0.489-0.018-1.062-0.02-1.666
		c-0.043-0.608-0.016-1.249-0.076-1.89c-0.04-0.641-0.167-1.278-0.209-1.867c-0.023-0.59,0.105-1.148,0.182-1.63
		c0.166-0.96,0.554-1.666,0.554-1.666l0.198-0.025c0,0,0.504,0.595,0.844,1.585c0.093,0.247,0.175,0.517,0.215,0.804
		c0.054,0.288,0.083,0.593,0.09,0.909c0.016,0.635-0.197,1.303-0.275,1.967c-0.182,1.33-0.499,2.632-0.798,3.587
		c-0.282,0.959-0.546,1.573-0.546,1.573L115.969,375.681z"/>
</g>
<polygon fill="#FFFFFF" points="70.585,357.421 71.618,362.23 56.394,370.582 49.97,367.046 54.4,357.09 58.023,352.237 
	59.171,351.219 60.463,350.622 63.129,350.846 69.445,354.404 "/>
<path fill="#C4C4C4" d="M70.149,359.14c0,0-11.943,14.034-18.731,5.443c0,0-2.042,8.997-1.761,8.961
	c0.28-0.036,2.987,4.694,2.987,4.694l5.721,1.686l12.561-4.503l4.435-3.402l3.685-4.055l1.863-4.078l-0.184-7.789l-1.417-2.935
	L70.149,359.14z"/>
<g>
	<path fill="#010202" d="M76.621,370.7c0,0-0.012-0.55-0.066-1.36c-0.02-0.404-0.088-0.878-0.118-1.375
		c-0.08-0.499-0.101-1.026-0.191-1.547c-0.087-0.521-0.241-1.033-0.325-1.505c-0.062-0.475,0.026-0.939,0.074-1.339
		c0.095-0.794,0.424-1.436,0.424-1.436l0.193-0.049c0,0,0.544,0.42,0.96,1.219c0.23,0.395,0.353,0.882,0.423,1.414
		c0.063,0.535-0.121,1.109-0.15,1.67c-0.104,1.124-0.338,2.223-0.583,3.025c-0.221,0.806-0.445,1.319-0.446,1.319L76.621,370.7z"/>
</g>
<g>
	<path fill="#010202" d="M69.275,376.375c0,0,0.131-3.109,0.125-6.151c0.01-0.761-0.147-1.518-0.119-2.219
		c0.005-0.694,0.084-1.337,0.216-1.905c0.094-0.556,0.177-1.025,0.291-1.377c0.101-0.348,0.192-0.562,0.192-0.562l0.196-0.039
		c0,0,0.138,0.169,0.32,0.49c0.093,0.16,0.193,0.36,0.3,0.595c0.095,0.233,0.23,0.508,0.298,0.803
		c0.145,0.588,0.273,1.294,0.269,2.043c-0.026,0.37-0.085,0.752-0.159,1.137c-0.069,0.384-0.139,0.773-0.209,1.163
		c-0.147,0.772-0.26,1.547-0.447,2.258c-0.16,0.716-0.336,1.376-0.501,1.938c-0.308,1.13-0.575,1.863-0.575,1.863L69.275,376.375z"
		/>
</g>
<g>
	<path fill="#010202" d="M73.243,373.673c0,0,0.029-0.659,0.038-1.638c0.004-0.489-0.018-1.062-0.02-1.666
		c-0.043-0.608-0.016-1.249-0.076-1.89c-0.04-0.641-0.167-1.278-0.209-1.867c-0.022-0.59,0.105-1.148,0.182-1.629
		c0.166-0.961,0.554-1.667,0.554-1.667l0.198-0.025c0,0,0.504,0.595,0.844,1.585c0.093,0.246,0.175,0.517,0.215,0.804
		c0.054,0.287,0.083,0.593,0.09,0.909c0.016,0.635-0.197,1.303-0.276,1.967c-0.182,1.33-0.499,2.632-0.798,3.587
		c-0.282,0.959-0.546,1.573-0.546,1.573L73.243,373.673z"/>
</g>
<g>
	<path fill="#929293" d="M60.924,350.536c0.56-0.132,1.132-0.174,1.706-0.147c0.58,0.03,1.164,0.116,1.729,0.276
		c0.29,0.063,0.56,0.179,0.84,0.275c0.284,0.091,0.544,0.228,0.814,0.353c0.275,0.117,0.531,0.268,0.779,0.429
		c0.249,0.16,0.516,0.303,0.743,0.491l0.708,0.542l0.653,0.602c0.448,0.397,0.792,0.872,1.189,1.313
		c0.195,0.224,0.349,0.471,0.525,0.706l0.513,0.719l0.874,1.517l-0.697-0.609c-0.003-0.008-0.009-0.013-0.014-0.013l0.087-0.003
		c0.06-0.004,0.11,0.006,0.176,0c0.144-0.028,0.286-0.05,0.428-0.067c0.147-0.039,0.302-0.107,0.452-0.155
		c0.151-0.053,0.304-0.086,0.454-0.191l0.456-0.249c0.151-0.087,0.311-0.14,0.451-0.271l0.87-0.678
		c0.293-0.22,0.536-0.543,0.807-0.807l0.397-0.416c0.129-0.144,0.273-0.264,0.389-0.429l1.458-1.874l0.929-1.194l1.039,0.938
		c0.281,0.253,0.402,0.439,0.57,0.648c0.174,0.204,0.28,0.415,0.413,0.624c0.276,0.412,0.464,0.847,0.648,1.281
		c0.214,0.428,0.331,0.878,0.437,1.326c0.097,0.449,0.266,0.888,0.285,1.34c0.084,0.9,0.213,1.793,0.119,2.672
		c-0.041,0.882-0.069,1.755-0.274,2.599l-0.227,1.271l-0.114,0.633l-0.188,0.634c-0.279,0.854-0.658,1.685-1.125,2.398
		c-0.873,1.497-2.003,2.78-3.157,4.018c-1.172,1.224-2.423,2.365-3.723,3.453c-1.306,1.08-2.66,2.112-4.088,3.049
		c-1.426,0.938-2.914,1.803-4.493,2.52c-1.583,0.708-3.233,1.319-5.037,1.63c-0.894,0.169-1.84,0.243-2.834,0.179
		c-0.495-0.025-1.014-0.121-1.533-0.263l-0.393-0.136l-0.196-0.069l-0.098-0.036l-0.155-0.076l-0.558-0.282
		c-0.189-0.1-0.364-0.177-0.565-0.295l-0.643-0.426c-0.448-0.279-0.819-0.599-1.174-0.927c-0.379-0.31-0.698-0.681-1.013-1.056
		c-0.339-0.357-0.583-0.782-0.846-1.194c-1.005-1.672-1.563-3.572-1.652-5.435c-0.092-1.86,0.095-3.698,0.579-5.417
		c0.494-1.713,1.103-3.375,1.934-4.903c0.381-0.783,0.842-1.515,1.286-2.254c0.121-0.194,0.201-0.345,0.355-0.576l0.36-0.512
		l0.722-1.022c0.915-1.365,2.039-2.726,3.195-3.988c0.644-0.589,1.206-1.225,1.96-1.708l0.532-0.379l0.618-0.286
		c0.191-0.106,0.428-0.153,0.667-0.178C60.478,350.41,60.693,350.43,60.924,350.536z M60.547,350.83
		c-0.063,0.013-0.129,0.022-0.188,0.057c-0.172,0.061-0.334,0.128-0.488,0.269l-0.466,0.337l-0.414,0.437
		c-0.575,0.536-1.007,1.259-1.487,1.897c-0.885,1.365-1.705,2.721-2.479,4.229c-0.371,0.721-0.833,1.508-1.133,2.174
		c-0.345,0.729-0.706,1.448-0.98,2.198c-0.619,1.474-1.079,2.987-1.392,4.502c-0.325,1.515-0.431,3.039-0.295,4.497
		c0.157,1.451,0.505,2.849,1.229,4.031c0.182,0.292,0.354,0.593,0.584,0.849c0.21,0.272,0.417,0.549,0.683,0.773
		c0.246,0.251,0.496,0.487,0.753,0.656l0.378,0.295c0.152,0.102,0.355,0.203,0.531,0.305l0.545,0.305l0.323,0.133
		c0.279,0.089,0.579,0.172,0.916,0.205c0.664,0.078,1.396,0.074,2.144-0.03c1.498-0.174,3.034-0.626,4.543-1.144
		c1.511-0.53,3.014-1.153,4.478-1.872c2.922-1.441,5.729-3.248,8.062-5.556c1.161-1.149,2.213-2.428,2.969-3.845
		c0.387-0.719,0.641-1.444,0.824-2.188l0.1-0.582l0.031-0.608l0.063-1.211c0.079-0.807-0.021-1.602-0.098-2.387
		c-0.02-0.796-0.268-1.538-0.425-2.286c-0.055-0.384-0.247-0.714-0.364-1.068c-0.123-0.354-0.266-0.694-0.449-1.004
		c-0.164-0.323-0.327-0.645-0.542-0.91c-0.101-0.135-0.191-0.296-0.303-0.397l-0.26-0.284l1.968-0.257l-1.606,2.129
		c-0.121,0.185-0.311,0.329-0.465,0.494l-0.489,0.48c-0.339,0.311-0.625,0.655-1.008,0.934l-1.149,0.831
		c-0.179,0.147-0.42,0.242-0.637,0.356l-0.667,0.322c-0.212,0.116-0.474,0.175-0.724,0.243c-0.254,0.063-0.498,0.139-0.76,0.183
		l-0.826,0.059c-0.144,0-0.302-0.021-0.452-0.035l-0.227-0.027c-0.107-0.022-0.216-0.05-0.321-0.08l-0.472-0.139l-0.226-0.472
		l-0.676-1.412l-0.381-0.678c-0.132-0.222-0.244-0.463-0.392-0.673c-0.302-0.413-0.56-0.876-0.906-1.251l-0.487-0.602l-0.537-0.552
		c-0.172-0.196-0.379-0.344-0.573-0.515c-0.193-0.171-0.395-0.332-0.607-0.476c-0.21-0.148-0.416-0.313-0.644-0.433
		c-0.225-0.126-0.444-0.274-0.684-0.373c-0.468-0.228-0.957-0.432-1.469-0.568c-0.509-0.135-1.043-0.253-1.576-0.261L60.547,350.83z
		"/>
</g>
<g>
	<path fill="#929293" d="M103.65,352.544c0.56-0.132,1.132-0.174,1.706-0.147c0.58,0.03,1.164,0.116,1.729,0.276
		c0.29,0.063,0.56,0.179,0.84,0.275c0.284,0.091,0.544,0.228,0.814,0.353c0.275,0.117,0.531,0.268,0.779,0.429
		c0.249,0.16,0.516,0.303,0.742,0.491l0.708,0.542l0.653,0.602c0.448,0.397,0.792,0.872,1.189,1.313
		c0.194,0.224,0.349,0.471,0.525,0.706l0.513,0.719l0.873,1.518l-0.697-0.61c-0.003-0.008-0.009-0.013-0.014-0.013l0.088-0.003
		c0.06-0.004,0.11,0.006,0.176,0c0.144-0.027,0.286-0.05,0.428-0.067c0.148-0.038,0.302-0.107,0.453-0.155
		c0.151-0.053,0.304-0.086,0.453-0.19l0.456-0.25c0.151-0.087,0.312-0.14,0.452-0.271l0.87-0.677
		c0.293-0.22,0.536-0.544,0.807-0.808l0.397-0.416c0.129-0.144,0.273-0.263,0.389-0.429l1.458-1.874l0.929-1.194l1.039,0.938
		c0.28,0.253,0.402,0.439,0.57,0.648c0.174,0.204,0.28,0.415,0.413,0.623c0.276,0.413,0.464,0.848,0.648,1.282
		c0.215,0.428,0.331,0.878,0.437,1.326c0.097,0.449,0.266,0.888,0.285,1.34c0.084,0.9,0.213,1.793,0.119,2.672
		c-0.041,0.881-0.068,1.755-0.273,2.599l-0.228,1.271l-0.114,0.633l-0.188,0.634c-0.278,0.854-0.658,1.685-1.124,2.398
		c-0.873,1.497-2.003,2.78-3.157,4.018c-1.173,1.224-2.423,2.365-3.723,3.453c-1.306,1.08-2.66,2.113-4.088,3.049
		c-1.426,0.938-2.914,1.803-4.493,2.52c-1.583,0.708-3.233,1.319-5.037,1.63c-0.894,0.169-1.841,0.243-2.835,0.179
		c-0.495-0.025-1.013-0.121-1.532-0.263l-0.393-0.135l-0.196-0.07l-0.098-0.036l-0.155-0.076l-0.558-0.282
		c-0.189-0.1-0.364-0.177-0.565-0.295l-0.643-0.426c-0.448-0.279-0.819-0.598-1.174-0.927c-0.379-0.31-0.697-0.68-1.013-1.055
		c-0.339-0.358-0.584-0.782-0.846-1.194c-1.005-1.672-1.564-3.572-1.652-5.435c-0.092-1.86,0.095-3.698,0.579-5.417
		c0.494-1.713,1.103-3.375,1.934-4.903c0.381-0.784,0.842-1.516,1.286-2.254c0.121-0.195,0.201-0.346,0.355-0.577l0.36-0.512
		l0.723-1.022c0.914-1.365,2.039-2.727,3.195-3.988c0.644-0.589,1.206-1.225,1.96-1.709l0.532-0.378l0.618-0.287
		c0.191-0.105,0.428-0.152,0.667-0.177C103.203,352.418,103.419,352.438,103.65,352.544z M103.272,352.838
		c-0.063,0.013-0.129,0.022-0.188,0.057c-0.172,0.061-0.334,0.128-0.488,0.269l-0.466,0.337l-0.414,0.437
		c-0.575,0.536-1.007,1.258-1.487,1.897c-0.885,1.365-1.705,2.721-2.479,4.229c-0.371,0.722-0.833,1.508-1.133,2.174
		c-0.344,0.729-0.706,1.448-0.98,2.198c-0.619,1.474-1.079,2.987-1.392,4.503c-0.325,1.514-0.431,3.038-0.295,4.496
		c0.157,1.451,0.505,2.85,1.229,4.031c0.183,0.293,0.354,0.594,0.585,0.849c0.21,0.272,0.417,0.549,0.683,0.774
		c0.246,0.25,0.496,0.486,0.753,0.655l0.378,0.295c0.152,0.102,0.355,0.203,0.531,0.305l0.545,0.306l0.323,0.132
		c0.279,0.089,0.579,0.172,0.916,0.205c0.663,0.078,1.396,0.074,2.144-0.03c1.498-0.174,3.034-0.626,4.543-1.144
		c1.511-0.53,3.014-1.152,4.478-1.872c2.922-1.441,5.73-3.248,8.063-5.556c1.161-1.149,2.213-2.428,2.969-3.845
		c0.387-0.719,0.641-1.444,0.823-2.188l0.1-0.582l0.031-0.608l0.063-1.211c0.079-0.807-0.021-1.602-0.098-2.387
		c-0.02-0.796-0.268-1.538-0.425-2.286c-0.055-0.384-0.247-0.714-0.364-1.068c-0.123-0.354-0.266-0.694-0.45-1.004
		c-0.164-0.323-0.327-0.645-0.542-0.91c-0.102-0.135-0.192-0.296-0.303-0.397l-0.26-0.284l1.968-0.257l-1.606,2.129
		c-0.121,0.185-0.311,0.329-0.465,0.494l-0.489,0.48c-0.339,0.311-0.625,0.656-1.009,0.935l-1.149,0.83
		c-0.179,0.148-0.42,0.242-0.637,0.356l-0.667,0.322c-0.212,0.116-0.474,0.175-0.724,0.243c-0.254,0.063-0.498,0.139-0.76,0.183
		l-0.826,0.059c-0.144,0-0.302-0.021-0.452-0.035l-0.227-0.027c-0.107-0.022-0.216-0.05-0.321-0.08l-0.472-0.139l-0.226-0.472
		l-0.676-1.412l-0.381-0.678c-0.131-0.223-0.244-0.463-0.392-0.673c-0.302-0.413-0.56-0.876-0.906-1.251l-0.486-0.602l-0.537-0.552
		c-0.172-0.196-0.38-0.344-0.573-0.515c-0.193-0.172-0.395-0.332-0.607-0.476c-0.21-0.148-0.416-0.313-0.644-0.433
		c-0.225-0.126-0.444-0.274-0.684-0.373c-0.468-0.228-0.957-0.432-1.469-0.568c-0.509-0.135-1.043-0.253-1.576-0.261
		L103.272,352.838z"/>
</g>
<path fill="none" stroke="#929293" stroke-miterlimit="10" d="M102.24,359.981c0,0-6.512-11.016-7.348-7.578
	S102.24,359.981,102.24,359.981z"/>
<path fill="none" stroke="#929293" stroke-miterlimit="10" d="M104.71,360.011c0,0,6.744-11.94,7.857-8.362
	C113.684,355.228,104.71,360.011,104.71,360.011z"/>
<path fill="none" stroke="#929293" stroke-miterlimit="10" d="M58.954,357.987c0,0-6.511-11.017-7.347-7.579
	C50.77,353.846,58.954,357.987,58.954,357.987z"/>
<path fill="none" stroke="#929293" stroke-miterlimit="10" d="M61.425,358.016c0,0,6.742-11.94,7.857-8.361
	C70.398,353.233,61.425,358.016,61.425,358.016z"/>
<path fill="#010202" d="M65.722,73.847c0,0-2.936,7.072-3.736,11.258c-0.8,4.187-3.801,8.425-7.979,8.023
	c0,0,10.954,1.349,16.554-3.254c5.6-4.604,11.122-24.907,11.122-24.907l-6.145,0.979L65.722,73.847z"/>
<path fill="#010202" d="M64.451,92.62c0,0-7.285,14.272-13.736,16.425c0,0,18.628-8.932,23.528-13.221s1.869-19.659,1.869-19.659
	L64.451,92.62z"/>
<path fill="#3D3D3D" d="M132.721,320.001c0,0,0.9-59.206-14.197-72.687S86.79,228.227,86.79,228.227l-28.869,23.521l-1.828,11.96
	l-2.197,18.322l-1.962,17.825L47.2,327.188l5.817,2.089c0,0,22.798,2.486,30.613-3.699l6.154-30.593l2.042,4.903l3.39,13.424
	l1.666,13.953l-0.07,2.314l21.771-2.643L132.721,320.001z"/>
<path fill="#262626" d="M111.369,249.987c0,0,16.971,17.769,16.703,73.957l4.648-3.943l-0.123-17.976l-2.225-22.688l-2.947-14.06
	l-6.041-14.604c0,0-4.192-4.564-5.525-5.645s-4.858,2.464-4.858,2.464L111.369,249.987z"/>
<path fill="#262626" d="M116.1,255.208c0,0-28.053,1.497-35.96-1.484c-7.907-2.98,18.124-12.431,18.124-12.431l16.182,4.619
	L116.1,255.208z"/>
<path fill="#937860" d="M107.254,329.274l20.818-5.33l-2.439,10.725c0,0-13.469,4.239-18.377,4.688L107.254,329.274z"/>
<path fill="#937860" d="M83.154,325.926c0,0-0.861,8.736-1.083,9.525c-0.221,0.79-17.927,2.691-19.579,1.847
	c-1.653-0.845,0.504-6.978,0.504-6.978S82.544,326.94,83.154,325.926z"/>
<path fill="#BB2B2B" d="M116.29,311.72c0,0,4.999-0.118,5.059-6.021c0.062-5.903,2.684-4.966,2.684-4.966
	s-10.816-0.544-11.303,4.269C112.244,309.814,116.29,311.72,116.29,311.72z"/>
<path fill="#BB2B2B" d="M117.217,308.072c0,0,1.194-4.854-4.486-6.458c-5.682-1.604-4.091-3.889-4.091-3.889
	s-3.355,10.295,1.161,12.023C114.318,311.479,117.217,308.072,117.217,308.072z"/>
<path fill="#BB2B2B" d="M112.099,310.878c0,0-1.625,4.729,3.889,6.836s3.724,4.24,3.724,4.24s4.267-9.952-0.076-12.081
	C115.291,307.746,112.099,310.878,112.099,310.878z"/>
<path fill="#BB2B2B" d="M115.507,312.387c0,0,3.345,3.717,7.865-0.08c4.519-3.799,5.515-1.197,5.515-1.197s-6.629-8.563-10.6-5.798
	C114.318,308.075,115.507,312.387,115.507,312.387z"/>
<path fill="#BB2B2B" d="M113.413,306.817c0,0-4.938-0.782-6.059,5.014c-1.119,5.797-3.532,4.402-3.532,4.402
	s10.542,2.479,11.886-2.169C117.052,309.418,113.413,306.817,113.413,306.817z"/>
<g>
	<path fill="#010202" d="M115.945,310.214c0,0-0.67-0.286-1.677-0.716c-0.499-0.207-1.082-0.437-1.705-0.67
		c-0.627-0.223-1.292-0.463-1.972-0.646c-0.338-0.096-0.674-0.205-1.013-0.271c-0.337-0.075-0.666-0.169-0.992-0.216
		c-0.324-0.062-0.638-0.126-0.939-0.157c-0.301-0.036-0.587-0.093-0.853-0.104c-0.266-0.018-0.512-0.045-0.732-0.069
		c-0.22-0.006-0.413-0.011-0.571-0.016c-0.324-0.02-0.509-0.031-0.509-0.031s0.171-0.065,0.481-0.165
		c0.309-0.112,0.761-0.229,1.32-0.293c0.279-0.053,0.583-0.062,0.905-0.067c0.324-0.018,0.665-0.011,1.015,0.03
		c0.706,0.039,1.443,0.204,2.167,0.399c0.718,0.216,1.417,0.485,2.042,0.8c0.625,0.312,1.184,0.648,1.635,0.976
		C115.46,309.638,115.945,310.214,115.945,310.214z"/>
</g>
<path fill="#BB2B2B" d="M67.448,310.435c0,0,4.999-0.118,5.059-6.021c0.062-5.904,2.684-4.966,2.684-4.966
	s-10.817-0.544-11.303,4.269C63.402,308.529,67.448,310.435,67.448,310.435z"/>
<path fill="#BB2B2B" d="M67.737,307.806c0,0,1.194-4.854-4.486-6.458c-5.682-1.604-4.09-3.89-4.09-3.89s-3.356,10.295,1.161,12.024
	S67.737,307.806,67.737,307.806z"/>
<path fill="#BB2B2B" d="M63.258,309.593c0,0-1.625,4.728,3.889,6.836c5.515,2.107,3.725,4.24,3.725,4.24s4.266-9.952-0.076-12.081
	C66.45,306.461,63.258,309.593,63.258,309.593z"/>
<path fill="#BB2B2B" d="M67.288,311.087c0,0,3.345,3.717,7.864-0.081s5.514-1.196,5.514-1.196s-6.628-8.563-10.599-5.799
	C66.099,306.775,67.288,311.087,67.288,311.087z"/>
<path fill="#BB2B2B" d="M63.466,307.997c0,0-4.938-0.782-6.059,5.014c-1.12,5.797-3.532,4.402-3.532,4.402
	s10.542,2.479,11.885-2.168S63.466,307.997,63.466,307.997z"/>
<g>
	<path fill="#010202" d="M67.104,308.929c0,0-0.67-0.286-1.677-0.716c-0.499-0.207-1.082-0.437-1.705-0.67
		c-0.627-0.224-1.292-0.464-1.972-0.646c-0.338-0.097-0.674-0.205-1.013-0.271c-0.337-0.075-0.666-0.169-0.992-0.216
		c-0.324-0.062-0.638-0.126-0.939-0.157c-0.301-0.036-0.587-0.093-0.853-0.104c-0.266-0.017-0.512-0.044-0.732-0.068
		c-0.22-0.006-0.413-0.011-0.571-0.016c-0.324-0.02-0.509-0.031-0.509-0.031s0.171-0.065,0.481-0.165
		c0.309-0.112,0.761-0.229,1.32-0.293c0.279-0.054,0.583-0.062,0.905-0.067c0.324-0.018,0.665-0.011,1.015,0.029
		c0.706,0.04,1.443,0.205,2.167,0.399c0.718,0.216,1.417,0.485,2.042,0.8c0.625,0.313,1.183,0.649,1.634,0.977
		C66.619,308.353,67.104,308.929,67.104,308.929z"/>
</g>
<path fill="#BB2B2B" d="M72.008,274.342c0,0,4.999-0.118,5.058-6.021c0.062-5.903,2.685-4.965,2.685-4.965
	s-10.817-0.545-11.303,4.268C67.961,272.437,72.008,274.342,72.008,274.342z"/>
<path fill="#BB2B2B" d="M74.082,273.086c0,0,1.194-4.854-4.486-6.459c-5.683-1.604-4.09-3.889-4.09-3.889
	s-3.356,10.295,1.161,12.023C71.183,276.492,74.082,273.086,74.082,273.086z"/>
<path fill="#BB2B2B" d="M68.488,274.646c0,0-1.625,4.729,3.889,6.836s3.725,4.24,3.725,4.24s4.266-9.952-0.077-12.08
	C71.681,271.514,68.488,274.646,68.488,274.646z"/>
<path fill="#BB2B2B" d="M71.225,275.009c0,0,3.344,3.717,7.865-0.08c4.519-3.798,5.514-1.197,5.514-1.197s-6.63-8.563-10.599-5.798
	C70.036,270.698,71.225,275.009,71.225,275.009z"/>
<path fill="#BB2B2B" d="M68.004,271.022c0,0-4.939-0.782-6.059,5.014c-1.12,5.797-3.532,4.402-3.532,4.402
	s10.542,2.479,11.886-2.169C71.643,273.623,68.004,271.022,68.004,271.022z"/>
<g>
	<path fill="#010202" d="M71.664,272.836c0,0-0.671-0.286-1.677-0.716c-0.5-0.207-1.082-0.437-1.705-0.67
		c-0.627-0.224-1.292-0.463-1.972-0.646c-0.338-0.096-0.674-0.205-1.013-0.271c-0.337-0.075-0.666-0.169-0.992-0.216
		c-0.324-0.062-0.638-0.126-0.939-0.157c-0.301-0.036-0.587-0.093-0.853-0.104c-0.266-0.018-0.512-0.045-0.732-0.069
		c-0.22-0.006-0.413-0.011-0.571-0.016c-0.324-0.02-0.509-0.031-0.509-0.031s0.171-0.065,0.481-0.165
		c0.309-0.112,0.761-0.229,1.32-0.293c0.279-0.053,0.583-0.062,0.905-0.067c0.324-0.018,0.665-0.011,1.015,0.03
		c0.706,0.039,1.443,0.204,2.166,0.399c0.718,0.216,1.417,0.485,2.042,0.8c0.625,0.312,1.183,0.648,1.634,0.976
		C71.179,272.26,71.664,272.836,71.664,272.836z"/>
</g>
<path fill="#BB2B2B" d="M103.468,279.973c0,0,4.827-1.304,3.481-7.052c-1.344-5.749,1.426-5.461,1.426-5.461
	s-10.636,2.043-9.963,6.833C99.084,279.085,103.468,279.973,103.468,279.973z"/>
<path fill="#BB2B2B" d="M103.093,277.235c0,0,0.005-4.998-5.895-5.206c-5.9-0.206-4.897-2.804-4.897-2.804
	s-0.812,10.798,3.987,11.402C101.087,281.233,103.093,277.235,103.093,277.235z"/>
<path fill="#BB2B2B" d="M99.197,280.151c0,0-0.455,4.98,5.402,5.715c5.858,0.736,4.626,3.233,4.626,3.233s1.777-10.682-2.948-11.716
	C101.553,276.351,99.197,280.151,99.197,280.151z"/>
<path fill="#BB2B2B" d="M102.866,280.807c0,0,4.132,2.814,7.62-1.948c3.485-4.765,5.071-2.475,5.071-2.475s-8.475-6.74-11.673-3.11
	C100.686,276.902,102.866,280.807,102.866,280.807z"/>
<path fill="#BB2B2B" d="M99.002,278.483c0,0-4.984,0.416-4.692,6.312c0.29,5.896-2.384,5.116-2.384,5.116s10.829-0.1,11.028-4.933
	C103.153,280.144,99.002,278.483,99.002,278.483z"/>
<g>
	<path fill="#010202" d="M102.775,278.592c0,0-0.72-0.119-1.799-0.297c-0.534-0.082-1.154-0.166-1.815-0.245
		c-0.662-0.067-1.365-0.143-2.069-0.158c-0.351-0.013-0.703-0.039-1.048-0.022c-0.346,0.008-0.687-0.005-1.015,0.027
		c-0.33,0.017-0.649,0.029-0.95,0.07c-0.301,0.036-0.592,0.049-0.853,0.102c-0.262,0.046-0.508,0.079-0.728,0.107
		c-0.215,0.047-0.403,0.087-0.558,0.121c-0.319,0.057-0.502,0.09-0.502,0.09s0.151-0.104,0.428-0.275
		c0.273-0.182,0.685-0.403,1.213-0.598c0.258-0.118,0.551-0.198,0.863-0.281c0.311-0.094,0.643-0.168,0.993-0.212
		c0.695-0.13,1.45-0.145,2.199-0.128c0.749,0.04,1.492,0.135,2.173,0.292c0.682,0.154,1.304,0.349,1.82,0.56
		C102.167,278.147,102.775,278.592,102.775,278.592z"/>
</g>
<g>
	<path fill="#010202" d="M89.745,293.342c-0.287,2.716-0.575,5.432-0.896,8.144l-0.234,2.034c-0.064,0.68-0.199,1.351-0.299,2.026
		l-0.646,4.053l-0.659,4.056c-0.215,1.355-0.495,2.689-0.74,4.036l-0.76,4.031c-0.248,1.345-0.551,2.682-0.824,4.023l-0.09,0.444
		l-0.38,0.222l-2.113,1.229c-0.69,0.446-1.456,0.721-2.197,1.055c-0.748,0.317-1.484,0.676-2.265,0.887l-2.318,0.729l-2.365,0.509
		c-0.786,0.195-1.586,0.261-2.381,0.381c-0.796,0.11-1.593,0.23-2.393,0.267c-0.799,0.052-1.599,0.125-2.398,0.157l-2.397,0.036
		c-0.799,0.013-1.595-0.042-2.393-0.061c-0.799-0.011-1.592-0.088-2.386-0.154c-0.795-0.059-1.587-0.134-2.376-0.239
		c-1.582-0.181-3.155-0.419-4.721-0.711c-0.784-0.135-1.564-0.306-2.345-0.469c-0.786-0.177-1.545-0.353-2.36-0.575l-1.293-0.354
		l0.246-1.356l1.713-9.451l0.846-4.73c0.284-1.576,0.509-3.16,0.767-4.74l1.564-9.479l1.24-9.499l0.632-4.777l0.579-4.781
		l0.612-4.778c0.184-1.594,0.448-3.186,0.7-4.777l0.786-4.769c0.271-1.587,0.504-3.179,0.824-4.755l0.911-4.736
		c0.307-1.577,0.652-3.148,0.987-4.72l-1.04,9.581c-0.354,3.189-0.627,6.383-0.953,9.566c-0.167,1.592-0.344,3.18-0.444,4.785
		l-0.358,4.804l-0.392,4.801l-0.449,4.792l-0.473,4.819l-0.51,4.815l-1.371,9.56c-0.247,1.59-0.461,3.187-0.735,4.771l-0.813,4.757
		l-0.813,4.757c-0.275,1.586-0.596,3.166-0.892,4.749l-1.046-1.71c0.688,0.193,1.448,0.377,2.183,0.548
		c0.746,0.162,1.489,0.33,2.242,0.466c1.5,0.292,3.012,0.532,4.529,0.717c0.757,0.107,1.517,0.186,2.278,0.247
		c0.761,0.071,1.521,0.145,2.282,0.177c0.761,0.034,1.523,0.105,2.284,0.11l2.283,0.019c0.76-0.015,1.517-0.067,2.275-0.099
		c0.762-0.015,1.511-0.113,2.263-0.199c0.749-0.097,1.511-0.138,2.245-0.307l2.222-0.423l2.171-0.595
		c0.738-0.167,1.419-0.474,2.118-0.739c0.691-0.281,1.416-0.504,2.053-0.89l1.977-1.048l-0.471,0.666l1.946-7.931
		c0.313-1.324,0.665-2.646,0.947-3.973l0.901-3.979l0.913-3.982c0.321-1.324,0.571-2.668,0.838-4.007
		C88.635,298.692,89.189,296.017,89.745,293.342z"/>
</g>
<g>
	<path fill="#010202" d="M80.821,282.549c0.864,0.619,1.637,1.357,2.399,2.103c0.737,0.768,1.478,1.543,2.125,2.393
		c0.692,0.817,1.286,1.705,1.907,2.577c0.616,0.876,1.14,1.81,1.716,2.715c0.533,0.928,1.017,1.884,1.529,2.828
		c0.487,0.955,0.898,1.945,1.352,2.919c0.474,0.967,0.797,1.99,1.182,2.993l0.557,1.513c0.171,0.509,0.311,1.026,0.467,1.54
		l0.907,3.092l0.719,3.139l0.354,1.573l0.251,1.59l0.502,3.182c0.168,1.062,0.225,2.133,0.342,3.2l0.309,3.206l0.217,6.431
		l-1.266-1.313c1.529,0.015,3.127-0.04,4.691-0.127c1.572-0.085,3.144-0.204,4.707-0.377c0.782-0.084,1.565-0.158,2.342-0.275
		c0.777-0.116,1.56-0.192,2.333-0.324l2.32-0.384l2.299-0.471c0.771-0.144,1.52-0.355,2.276-0.547
		c0.754-0.196,1.515-0.372,2.248-0.625l2.215-0.71l2.152-0.846c0.733-0.253,1.387-0.648,2.083-0.966l1.032-0.498
		c0.332-0.183,0.648-0.39,0.973-0.582l0.971-0.587c0.328-0.19,0.65-0.388,0.932-0.632l1.768-1.375l-0.488,1.043
		c0.105-3.086,0.123-6.229,0.094-9.346c-0.04-3.122-0.085-6.246-0.207-9.368c-0.114-3.121-0.296-6.24-0.537-9.353
		c-0.223-3.114-0.5-6.226-0.879-9.322c-0.17-1.552-0.4-3.094-0.616-4.639c-0.234-1.541-0.462-3.085-0.745-4.617
		c-0.256-1.539-0.586-3.062-0.908-4.586c-0.344-1.52-0.707-3.034-1.107-4.54c-0.181-0.76-0.422-1.498-0.639-2.247
		c-0.213-0.75-0.445-1.493-0.709-2.226c-0.484-1.482-1.065-2.928-1.675-4.361l-0.994-2.117l-1.118-2.056l-1.254-1.981l-1.425-1.872
		l1.591,1.746l1.438,1.884l1.279,1.998l1.148,2.078c0.713,1.412,1.4,2.843,1.989,4.313c0.317,0.728,0.603,1.466,0.869,2.211
		c0.27,0.744,0.564,1.482,0.798,2.238l0.735,2.26l0.646,2.285c0.401,1.529,0.809,3.062,1.143,4.607
		c0.721,3.082,1.279,6.196,1.758,9.32c0.487,3.124,0.883,6.26,1.205,9.401c0.309,3.144,0.558,6.292,0.738,9.443
		c0.178,3.152,0.324,6.306,0.367,9.463c0.05,3.162,0.055,6.303-0.032,9.494l-0.019,0.671l-0.471,0.372l-2,1.584
		c-0.326,0.279-0.682,0.503-1.043,0.718l-1.074,0.662c-0.359,0.217-0.713,0.447-1.078,0.651l-1.125,0.547
		c-0.756,0.342-1.486,0.765-2.268,1.032l-2.314,0.891l-2.352,0.737c-0.781,0.262-1.578,0.441-2.371,0.642
		c-0.794,0.195-1.584,0.412-2.386,0.556l-2.398,0.474l-2.409,0.383c-0.803,0.128-1.61,0.21-2.416,0.308
		c-0.806,0.104-1.614,0.165-2.421,0.235c-1.615,0.145-3.232,0.233-4.851,0.288c-1.626,0.057-3.224,0.08-4.888,0.03l-1.256-0.037
		l-0.01-1.276l-0.051-6.29l-0.196-3.136c-0.08-1.044-0.098-2.097-0.227-3.136l-0.385-3.117l-0.192-1.561l-0.279-1.544l-0.557-3.094
		l-0.742-3.052c-0.129-0.508-0.241-1.021-0.385-1.524l-0.473-1.497c-0.336-0.991-0.579-2.02-0.98-2.987
		c-0.38-0.976-0.719-1.973-1.133-2.936c-0.439-0.951-0.851-1.92-1.314-2.862c-0.504-0.919-0.959-1.872-1.507-2.77
		c-0.553-0.893-1.081-1.808-1.708-2.653c-0.592-0.873-1.239-1.705-1.904-2.526C82.328,284.038,81.627,283.241,80.821,282.549z"/>
</g>
<path fill="#BFA07F" d="M118.288,276.245l3.02-3.578l11.629-14.046l14.047-18.025l4.2-6.264l-1.769-15.552l-5.156-19.92
	l-4.377-11.659c0,0-6.387-14.444-14.207-11.992c-7.822,2.452-21.228,21.332-21.228,21.332l4.707,22.154l15.276,4.389l4.574-7.537
	l3.255,14.355l-11.048,18.867l-8.996,18.171L118.288,276.245z"/>
<path fill="#BFA07F" stroke="#937860" stroke-width="3" stroke-miterlimit="10" d="M119.352,163.72c0,0-1.644,7.76,0.903,9.701
	c2.546,1.94,0.02,0.833,0.02,0.833l-16.134,22.721l-13.812-13.011l-0.271-11.497c0,0,6.641-1.158,8.121-9.028
	c1.482-7.87,16.454-9.224,16.454-9.224L119.352,163.72z"/>
<g>
	<path fill="#937860" d="M120.595,201.92c0.625,0.164,1.213,0.499,1.741,0.887c0.537,0.382,1.03,0.83,1.479,1.31
		c0.938,0.938,1.691,2.025,2.423,3.124l1.007,1.697c0.319,0.576,0.588,1.173,0.886,1.76c0.303,0.586,0.557,1.189,0.811,1.793
		c0.249,0.605,0.533,1.201,0.752,1.817c0.418,1.235,0.91,2.458,1.268,3.712l0.568,1.875c0.193,0.625,0.348,1.258,0.5,1.891
		c0.295,1.267,0.646,2.527,0.897,3.803c0.269,1.272,0.521,2.549,0.757,3.828l0.093,0.502l-0.28,0.481l-2.766,4.739l-2.797,4.721
		c-0.929,1.574-1.827,3.165-2.782,4.724c-0.972,1.559-1.815,3.146-2.726,4.72l-1.365,2.36l-1.307,2.421
		c-0.859,1.619-1.773,3.213-2.663,4.817c-1.802,3.198-3.633,6.382-5.595,9.502c1.275-3.458,2.68-6.852,4.115-10.23
		c0.728-1.684,1.433-3.38,2.192-5.049l1.121-2.512c0.395-0.832,0.802-1.667,1.225-2.49c0.851-1.64,1.656-3.329,2.554-4.925
		c0.87-1.619,1.798-3.207,2.694-4.812c0.906-1.601,1.82-3.19,2.766-4.765l2.848-4.716l-0.188,0.983
		c-0.226-1.253-0.436-2.508-0.629-3.768c-0.189-1.262-0.477-2.497-0.709-3.748c-0.229-1.254-0.554-2.477-0.814-3.721
		c-0.256-1.248-0.641-2.45-0.956-3.682l-0.554-1.814c-0.186-0.605-0.368-1.214-0.6-1.799c-0.225-0.589-0.425-1.193-0.672-1.772
		l-0.744-1.741c-0.29-0.556-0.555-1.133-0.867-1.68c-0.329-0.533-0.619-1.103-0.999-1.604c-0.349-0.528-0.759-1.007-1.186-1.473
		C121.663,202.623,121.176,202.201,120.595,201.92z"/>
</g>
<g>
	<path fill="#937860" d="M129.287,174.707c0,0,0.434,0.169,1.189,0.609c0.75,0.443,1.834,1.146,3.064,2.235
		c1.231,1.083,2.617,2.538,3.977,4.387c1.354,1.847,2.756,4.054,3.914,6.636c1.191,2.552,2.225,5.498,3.135,8.518
		c0.958,3.029,2,6.217,2.999,9.55c0.995,3.333,2.044,6.781,2.912,10.358s1.664,7.254,2.004,11.092
		c0.093,1.935,0.194,3.888-0.274,5.944c-0.054,0.504-0.307,1.029-0.463,1.539l-0.135,0.385l-0.035,0.096
		c0.03-0.057-0.06,0.131-0.059,0.125l-0.021,0.037l-0.084,0.15l-0.333,0.602c-0.405,0.795-0.994,1.622-1.516,2.43
		c-1.072,1.585-2.127,3.031-3.238,4.459c-1.088,1.434-2.189,2.82-3.271,4.185c-2.16,2.732-4.325,5.305-6.379,7.741
		c-2.051,2.439-4.028,4.71-5.864,6.798c-7.335,8.355-12.521,13.662-12.521,13.662s1.11-1.484,3.053-4.082
		c1.964-2.576,4.771-6.257,8.138-10.674c1.688-2.201,3.517-4.586,5.451-7.108c1.918-2.528,3.94-5.194,6.033-7.953
		c2.076-2.747,4.188-5.683,6.162-8.592c0.457-0.728,0.947-1.386,1.369-2.232l0.328-0.604l0.082-0.151l0.021-0.038
		c0.017-0.03-0.063,0.13-0.024,0.046l0.021-0.068l0.085-0.269c0.096-0.372,0.285-0.681,0.318-1.104
		c0.357-1.555,0.266-3.35,0.168-5.096c-0.279-3.544-1.011-7.136-1.828-10.642c-0.839-3.507-1.715-6.969-2.631-10.306
		c-0.905-3.35-1.78-6.588-2.609-9.658c-0.803-3.105-1.583-5.906-2.568-8.463c-0.968-2.551-2.128-4.774-3.282-6.667
		c-1.173-1.882-2.354-3.433-3.446-4.605c-1.097-1.168-2.049-2.006-2.74-2.525C129.697,174.928,129.287,174.707,129.287,174.707z"/>
</g>
<path fill="#BFA07F" stroke="#937860" stroke-width="3" stroke-miterlimit="10" d="M86.451,171.552c0,0-22.936-1.068-14.139,25.787
	l18.521,7.954L86.451,171.552z"/>
<g>
	<polygon fill="#937860" points="130.277,216.341 124.431,223.086 127.732,214.754 	"/>
</g>
<g>
	<path fill="#010202" d="M110.104,258.851c0,0,0.787,1.929,1.967,4.822c0.31,0.706,0.626,1.474,0.992,2.265
		c0.341,0.803,0.754,1.616,1.149,2.467c0.438,0.826,0.869,1.686,1.368,2.509c0.225,0.43,0.505,0.819,0.769,1.221
		c0.259,0.406,0.521,0.812,0.83,1.167c0.554,0.776,1.206,1.434,1.85,2.057c0.344,0.278,0.685,0.555,1.022,0.827
		c0.368,0.207,0.731,0.414,1.084,0.64l0.066,0.041l0.017,0.011c-0.122-0.044-0.028-0.01-0.052-0.019l0.011,0.005l0.042,0.017
		l0.167,0.07l0.333,0.139c0.22,0.094,0.438,0.188,0.654,0.279c0.418,0.174,0.738,0.233,1.104,0.376
		c0.71,0.15,1.382,0.245,1.836,0.086c0.438-0.152,0.78-0.59,0.97-1.111c0.187-0.515,0.281-1.049,0.313-1.489
		c0.072-0.889,0.031-1.43,0.031-1.43s0.07,0.114,0.178,0.341c0.098,0.229,0.265,0.565,0.385,1.027
		c0.132,0.459,0.267,1.042,0.221,1.77c-0.008,0.363-0.1,0.768-0.262,1.195c-0.107,0.207-0.229,0.424-0.376,0.629
		c-0.177,0.182-0.372,0.368-0.58,0.55c-0.93,0.639-2.021,0.705-3.064,0.664c-0.498-0.071-1.09-0.149-1.561-0.265
		c-0.226-0.063-0.455-0.125-0.686-0.188l-0.347-0.099l-0.174-0.049l-0.044-0.013l-0.084-0.029l-0.024-0.011l-0.095-0.042
		c-0.511-0.22-1.027-0.465-1.549-0.716c-0.482-0.298-0.942-0.642-1.412-0.981c-0.877-0.73-1.689-1.561-2.357-2.462
		c-0.362-0.439-0.657-0.909-0.947-1.379c-0.302-0.464-0.58-0.939-0.812-1.424c-0.513-0.953-0.899-1.931-1.266-2.875
		c-0.324-0.956-0.626-1.882-0.836-2.776c-0.241-0.886-0.375-1.744-0.514-2.527c-0.13-0.786-0.213-1.511-0.263-2.156
		c-0.071-0.641-0.071-1.209-0.089-1.671C110.053,259.383,110.104,258.851,110.104,258.851z"/>
</g>
<path fill="#BFA07F" stroke="#937860" stroke-width="3" stroke-miterlimit="10" d="M73.021,79.067c0,0-8.041,18.068-8.813,32.125
	c-0.773,14.057-11.973,26.772-5.143,37.223c6.831,10.452,28.178,16.616,31.594,17.202c3.417,0.586,49.45,0.391,69.749-17.911
	c20.299-18.302,8.844-73.741,8.844-73.741l-28.593-27.513l-42.982,3.967L73.021,79.067z"/>
<path fill="#937860" d="M96.689,167.012c0,0,12.743,3.107,15.905,2.866c0,0,3.253,10.593,7.798,12.486
	c0,0,6.732-4.328,18.888,16.225c12.155,20.552,8.138,33.984,7.837,35.325c-0.302,1.341-21.549,33.414-21.549,33.414l6.92-7.759
	l15.811-20.509l2.777-6.275l-2.071-15.874l-5.431-19.297l-5.346-13.407c0,0-2.532-7.122-11.482-10.037l-4.206,2.1l-3.459-5.229
	l-0.239-6.95L96.689,167.012z"/>
<path fill="#937860" d="M125.74,207.627c0,0-3.212,10.752-8.722,14.883l7.412,0.576l4.574-7.539L125.74,207.627z"/>
<path fill="#010202" d="M120.255,173.42c0,0,6.475-1.153,9.032,1.287c0,0-23.064,18.55-4.856,48.379c0,0-4.792,6.863-6.19,12.232
	c-1.398,5.368,0.283,11.996,0.283,11.996s-8.459,2.867-12.903,5.307c-4.443,2.439-28.603,3.011-32.971,1.613
	c-4.368-1.397-14.729-2.487-14.729-2.487s2.26-6.638,2.333-14.142s3.522-30.842,12.748-42.563
	c9.226-11.721,13.417-24.824,13.417-24.824s3.726-1.088,7.341-1.549c0,0-3.853,11.594,3.675,12.667
	C104.963,182.409,119.528,173.524,120.255,173.42z"/>
<path fill="#FFFFFF" d="M117.975,244.299c0,0-51.511-16.534-51.35-37.448l2.77-6.146c0,0,7.455,26.212,48.424,36.956
	C117.818,237.66,117.432,240.49,117.975,244.299z"/>
<path fill="#FFFFFF" d="M118.66,209.902c0,0-42.218,20.752-58.292,25.166c0,0-0.143,4.197-0.229,5.207
	c0,0,35.545-12.572,60.398-24.811C120.537,215.465,118.942,211.049,118.66,209.902z"/>
<path fill="#C1C1C1" d="M113.531,242.748c0,0-0.784-3.869-0.15-6.35c0,0,4.066,1.227,4.438,1.262c0,0-0.392,3.622,0.157,6.639
	C117.975,244.299,113.873,242.873,113.531,242.748z"/>
<path fill="#937860" d="M106.615,61.818c0,0-9.232,11.448-11.582,17.838s-20.704,20.21-25.918,9.581s16.012-33.687,16.012-33.687
	l13.185-6.48L106.615,61.818z"/>
<path fill="#937860" d="M145.438,106.807c0,0,10.259,0.258,13.651-4.323c3.393-4.582,5.734-21.908,5.734-21.908l-11.991,8.071
	L145.438,106.807z"/>
<path fill="#937860" d="M152.044,104.425c0,0,0.601,15.114-0.706,19.53c-1.306,4.417-8.475,24.839-17.828,31.885
	c-9.354,7.046-29.797,9.605-29.797,9.605l29.945-4.723l14.68-5.253l12.222-18.206l0.274-40.323L152.044,104.425z"/>
<path fill="#937860" d="M67.213,129.95c0,0,18.544,11.262,24.734-13.801L67.213,129.95z"/>
<path fill="#937860" d="M125.476,140.288c0,0,12.376,3.375,17.308-3.91c4.932-7.285,2.968-16.33,2.968-16.33l-11.718,0.277
	L125.476,140.288z"/>
<g>
	<path fill="#937860" d="M94.521,151.402c0,0,0.089,0.016,0.256,0.045c0.175,0.036,0.394,0.061,0.679,0.1
		c0.292,0.03,0.62,0.103,1.05,0.122c0.422,0.03,0.898,0.064,1.417,0.102c0.521,0.041,1.09,0.013,1.693,0.023
		c0.603-0.006,1.243,0.03,1.899-0.043c0.661-0.049,1.343-0.101,2.037-0.152c0.701-0.023,1.391-0.186,2.094-0.288
		c0.703-0.115,1.407-0.229,2.099-0.342c0.687-0.142,1.347-0.345,1.998-0.508c0.65-0.171,1.278-0.337,1.875-0.495
		c0.608-0.13,1.133-0.388,1.642-0.566c2.024-0.771,3.374-1.286,3.374-1.286s-1.276,0.687-3.19,1.718
		c-0.487,0.245-0.989,0.576-1.579,0.785c-0.58,0.237-1.192,0.488-1.825,0.747c-0.637,0.251-1.288,0.546-1.97,0.782
		c-0.692,0.208-1.396,0.419-2.099,0.63c-0.708,0.198-1.407,0.458-2.124,0.578c-0.713,0.148-1.416,0.294-2.095,0.435
		c-0.679,0.164-1.351,0.216-1.985,0.305c-0.636,0.072-1.235,0.178-1.797,0.208c-0.563,0.033-1.08,0.063-1.538,0.09
		c-0.451,0.039-0.886,0.01-1.226,0.016c-0.345-0.002-0.622-0.002-0.782-0.014c-0.169-0.008-0.26-0.012-0.26-0.012L94.521,151.402z"
		/>
</g>
<path fill="none" stroke="#937860" stroke-miterlimit="10" d="M97.118,166.724"/>
<linearGradient id="SVGID_1_" gradientUnits="userSpaceOnUse" x1="86.7168" y1="129.7744" x2="60.7555" y2="114.7857" gradientTransform="matrix(0.9997 -0.0236 0.0236 0.9997 -3.6875 -4.7383)">
	<stop  offset="0.1281" style="stop-color:#202021"/>
	<stop  offset="0.3793" style="stop-color:#DADADA"/>
	<stop  offset="0.7685" style="stop-color:#202021"/>
</linearGradient>
<linearGradient id="SVGID_2_" gradientUnits="userSpaceOnUse" x1="88.1406" y1="130.3071" x2="59.3723" y2="113.6978" gradientTransform="matrix(0.9997 -0.0236 0.0236 0.9997 -3.6875 -4.7383)">
	<stop  offset="0.1281" style="stop-color:#202021"/>
	<stop  offset="0.3793" style="stop-color:#575756"/>
	<stop  offset="0.7685" style="stop-color:#232323"/>
	<stop  offset="0.936" style="stop-color:#202021"/>
</linearGradient>
<path fill="url(#SVGID_1_)" stroke="url(#SVGID_2_)" stroke-width="3" stroke-miterlimit="10" d="M90.716,108.875l-29.862-2.295
	c0,0-5.813,20.943,8.593,23.003C83.853,131.643,89.572,119.705,90.716,108.875z"/>
<linearGradient id="SVGID_3_" gradientUnits="userSpaceOnUse" x1="142.2852" y1="138.5903" x2="106.6699" y2="118.0278" gradientTransform="matrix(0.9997 -0.0236 0.0236 0.9997 -3.6875 -4.7383)">
	<stop  offset="0.1281" style="stop-color:#202021"/>
	<stop  offset="0.3793" style="stop-color:#DADADA"/>
	<stop  offset="0.7685" style="stop-color:#202021"/>
</linearGradient>
<linearGradient id="SVGID_4_" gradientUnits="userSpaceOnUse" x1="143.6836" y1="139.1714" x2="104.9975" y2="116.8359" gradientTransform="matrix(0.9997 -0.0236 0.0236 0.9997 -3.6875 -4.7383)">
	<stop  offset="0.1281" style="stop-color:#202021"/>
	<stop  offset="0.3793" style="stop-color:#575756"/>
	<stop  offset="0.7685" style="stop-color:#232323"/>
	<stop  offset="0.936" style="stop-color:#202021"/>
</linearGradient>
<path fill="url(#SVGID_3_)" stroke="url(#SVGID_4_)" stroke-width="3" stroke-miterlimit="10" d="M105.973,110.312l37.403,1.616
	c0,0,4.083,26.86-14.103,27.264C111.087,139.594,105.774,123.923,105.973,110.312z"/>
<path fill="none" stroke="#202021" stroke-width="3" stroke-miterlimit="10" d="M88.67,117.683
	c8.962-5.708,17.489,2.082,17.489,2.082l0.896,1.197"/>
<g>
	<path fill="#202021" d="M143.125,118.77c0,0,0.4-0.178,1.104-0.489c0.699-0.297,1.695-0.708,2.906-1.154
		c2.42-0.892,5.699-1.957,9.094-2.565c1.695-0.306,3.414-0.499,5.033-0.511c0.811,0.006,1.592,0.039,2.329,0.134
		c0.735,0.093,1.427,0.226,2.047,0.412c0.622,0.172,1.173,0.4,1.642,0.629c0.229,0.124,0.444,0.239,0.643,0.346
		c0.186,0.128,0.356,0.245,0.51,0.351c0.317,0.196,0.51,0.427,0.666,0.546c0.147,0.131,0.227,0.201,0.227,0.201
		s-0.086-0.061-0.248-0.175c-0.17-0.102-0.38-0.306-0.714-0.464c-0.161-0.086-0.339-0.182-0.533-0.286
		c-0.204-0.082-0.424-0.17-0.659-0.265c-0.477-0.169-1.025-0.329-1.639-0.427c-0.608-0.111-1.28-0.164-1.988-0.174
		c-0.709-0.012-1.457,0.041-2.225,0.12c-1.539,0.184-3.156,0.55-4.742,1.023c-3.178,0.942-6.215,2.317-8.435,3.428
		c-1.111,0.557-2.018,1.054-2.644,1.408c-0.612,0.357-0.963,0.561-0.963,0.561L143.125,118.77z"/>
</g>
<path fill="#3D3D3D" d="M152.865,99.584l-3.146,3.781l-4.28,3.441c0,0,2.019-11.123,1.996-12.711
	c-0.022-1.589-1.233-11.922-1.233-11.922l-1.429-3.547l-4.722-3.971l-3.768-3.982l-3.557-4.41c0,0,0.305,0.79-1.126,1.186
	c-1.431,0.396-4.358-0.473-4.358-0.473l-0.967-0.198l-0.842,0.062l-1.918,0.778l-1.59,0.599l-1.237-0.208l-2.233-1.109l-2-0.729
	l-4.561,0.853l-0.997,0.153l-4.683-2.81l-5.793-5.135l-3.146-1.191l-2.627,1.077L90.03,65.95l-6.197,12.649l-5.875,7.365
	l-5.821,3.708l-6.664,0.851l-7.234-2.079l-6.008-4.81l-2.197-3.415l3.721,1.371l5.65,0.992c0,0,3.79-0.346,5.031-1.075
	c1.241-0.728,2.125-1.406,2.125-1.406l3.167-3.786l1.755-3.006l-0.309-0.03l-0.689,0.505l-1.499,0.947l-2.302,1.053l-5.108,0.724
	l-4.812-1.658l-3.812-3.495l5.625-0.049l6.714-3.164l0.628-5.363l2.429-5.452l1.375-2.907l-2.265-0.779l-1.848-0.918l-1.145-0.702
	l0.301-0.074c0,0,3.009-0.396,4.678-1.212c1.671-0.816,4.358-2.421,4.358-2.421l3.111-2.179l1.619-1.223l5.471-4.311l4.27-3.227
	l3.582-2.329l3.974-1.807l2.756-0.674l9.693-0.811l11.288,0.396l8.122,0.806l-3.816-5.3l-2.174-6.069l-0.053-1.502l5.825,5.625
	l8.386,4.356l8.79,1.727l8.271,1.566l8.77,4.819l5.727,6.169l4.271,6.804l0.523,1.054l4.881-1.445l5.396,0.507l5.537,3.873
	l3.363,5.053l3.07,7.218l2.535,7.972l1.883,6.62l0.05,2.104l-7.286-6.398l1.32,8.313l1.945,14.323l0.879,11.149l-0.477,5.964
	l-3.979-10.61l-2.917-7.058l-1.295-1.845l0.977,6.062l0.846,7.016l0.227,3.75v3.304l-0.201,2.589l-0.496,2.597l-0.83,2.052
	l-0.892,1.682l-1.38,3.396l-0.932,3.368l-0.504,3.041l-0.113,2.799l0.287,1.796c0,0-4.129-6.99-4.217-9.426l-2.057,4.979
	l-5.453,7.771l-4.396,5.101l-2.588,4.526l-0.22,1.357l-3.41-1.658l-0.671-2.095l-3.344,4.672l-1.248,2.688
	c0,0-0.363-7.157,1.343-14.368l-4.876-1.486l-6.541,10.465l-3.059,5.687l1.136-9.909l3.229-9.312l5.18-10.898l2.473-9.164
	l-0.058-7.751C155.327,112.575,154.313,103.839,152.865,99.584z"/>
<polygon fill="#3D3D3D" points="155.07,154.564 152.234,140.406 161.776,136.804 161.963,144.677 156.515,155.296 "/>
<polygon fill="#3D3D3D" points="156.934,149.406 151.412,157.055 146.966,150.283 154.428,134.853 "/>
<path fill="#010202" d="M172.437,53.488c0,0,10.015,0.431,15.442,11.472c5.428,11.041,12.313,20.131,12.313,20.131l-1.955-5.306
	l-4.981-15.515l-5.122-9.737l-4.563-2.803l-4.209-0.758l-4.983,0.589L172.437,53.488z"/>
<path fill="#010202" d="M132.727,66.263c0,0,7.098-1.242,14.96,3.402c7.862,4.645,16.038-9.196,16.038-9.196l-5.891,5.201
	l-3.986,1.99l-3.462-0.196l-6.036-1.475C144.35,65.988,138.014,62.429,132.727,66.263z"/>
<path fill="#010202" d="M190.717,75.729c0,0,1.318,18.758,0.543,22.948c0,0-4.891-5.84-6.913-6.793c0,0-2.306,29.396-9.999,42.498
	c-7.692,13.102-10.598,17.172-9.154,21.806l0.971-3.19l2.891-4.518l4.311-5.505l3.93-4.918l2.197-5.134l0.347-0.839l0.804,2.534
	l1.989,4.137l1.337,2.147c0,0-0.416-3.78,0.383-6.756l1.725-5.652l1.561-3.178l1.033-2.875l0.519-5.357l-1.692-16.272l0.094-1.315
	l2.261,3.781l2.737,6.603l2.719,7.578l0.477-5.964l-1.563-16.716L190.717,75.729z"/>
<polygon fill="#010202" points="152.982,144.142 147.779,150.876 151.139,157.562 154.84,152.308 "/>
<path fill="#010202" d="M110.899,67.174c0,0-3.003-3.388-5.656-7.463c-2.656-4.076-9.668-6.095-13.027,1.251l3.615-2.613
	l3.121,0.323l7.264,5.692l4.787,3.228"/>
<path fill="#010202" d="M80.609,54.582"/>
<path fill="#010202" d="M80.609,54.582c0,0-4.455,5.304-9.436,18.698l2.083-3.377l4.765-8.605l6.786-8.238L80.609,54.582z"/>
<path fill="#ADADAD" d="M160.434,48.187c0,0-4.555-7.52-15.137-10.896c0,0,4.607,4.517,5.42,7.124c0,0-7.465-3.7-13.361-4.561
	c0,0,8.019,6.021,9.692,8.065c0,0-10.208-3.427-13.976-4.088c0,0,5.43,2.247,9.398,6.155c0,0-7.561-2.475-13.706-3.253
	c0,0,8.723,4.013,11.03,6.451c0,0-1.062-2.609-2.646-3.509c0,0,5.281,1.205,8.021,3.382c0,0-0.185-2.505-3.571-5.613
	c0,0,7.24,2.142,9.654,3.773c0,0-3.883-5.597-7.955-8.564c0,0,9.527,3.651,12.263,5.649c0,0-3.98-6.401-6.452-8.475
	C149.107,39.827,156.191,43.285,160.434,48.187z"/>
<path fill="#ADADAD" d="M89.527,59.916c0,0-5.197,9.082-6.191,12.172c0,0,0.25-6.367,1.792-8.858c0,0-5.224,9.206-5.782,11.553
	c0,0,1.048-8.642,2.662-10.906c0,0-3.876,5.268-4.555,7.55c0,0,2.954-8.951,6.063-12.119c0,0-1.895,7.658-2.072,8.743
	c0,0,3.87-6.879,4.932-7.771c0,0-1.46,4.711-1.571,6.687C84.805,66.966,88.552,60.45,89.527,59.916z"/>
<path fill="#010202" d="M139.102,103.206c0,0-23.69,2.81-27.154,4.393c0,0,8.112-5.943,12.308-8.293c0,0-1.914,2.148-1.05,4.026
	C123.206,103.331,132.307,101.366,139.102,103.206z"/>
<path fill="#010202" d="M67.435,98.549c0,0,19.106,4.431,21.788,6.246c0,0-6.075-6.477-9.286-9.105c0,0,1.363,2.271,0.481,4.081
	C80.418,99.771,73.162,97.186,67.435,98.549z"/>
<g>
	<path fill="#010202" d="M132.629,66.278c-0.432-2.175-1.393-4.241-2.634-6.081c-1.247-1.841-2.788-3.484-4.556-4.823
		c-0.845-0.72-1.809-1.279-2.733-1.883c-0.954-0.557-1.949-1.049-2.938-1.535c-1.033-0.398-2.032-0.872-3.086-1.205
		c-1.063-0.306-2.1-0.686-3.178-0.931l-3.217-0.689l-3.323-0.5c-1.097-0.121-2.18-0.187-3.267-0.285
		c-1.09-0.055-2.187-0.039-3.279-0.064c-1.083,0.09-2.176,0.129-3.248,0.276c-1.063,0.194-2.15,0.295-3.176,0.633
		c-2.103,0.5-4.071,1.413-5.926,2.5c-1.858,1.101-3.504,2.542-5.046,4.089c-1.503,1.594-2.858,3.341-4.111,5.171
		c-1.232,1.844-2.402,3.743-3.488,5.694c-1.102,1.95-2.107,3.938-3.182,5.915c-1.047,1.984-2.171,3.953-3.582,5.742
		c-1.389,1.785-3.237,3.345-5.467,4.036l-0.829,0.265c-0.283,0.057-0.571,0.083-0.856,0.126c-0.572,0.067-1.146,0.194-1.719,0.142
		c-0.573-0.021-1.15-0.004-1.722-0.039l-1.696-0.244c-0.572-0.059-1.12-0.207-1.67-0.35l-1.654-0.421l-3.217-1.098l0.703-0.711
		c0.729,1.475,1.793,2.891,2.982,4.095c1.201,1.208,2.543,2.279,4.034,3.091c1.486,0.806,3.044,1.51,4.705,1.88
		c0.808,0.26,1.666,0.325,2.497,0.485c0.854,0.109,1.672,0.126,2.571,0.198c1.517,0.007,3.218-0.409,4.728-1.062
		c1.535-0.657,2.946-1.593,4.27-2.632c0.631-0.564,1.301-1.08,1.868-1.718l0.885-0.917c0.283-0.317,0.542-0.659,0.813-0.987
		l0.807-0.993l0.726-1.061c0.492-0.702,0.974-1.41,1.382-2.171c0.901-1.465,1.641-3.029,2.401-4.581l2.224-4.825
		c0.766-1.603,1.565-3.195,2.43-4.771c0.887-1.567,1.786-3.139,3.038-4.59c0.629-0.717,1.359-1.423,2.338-1.914
		c0.976-0.494,2.243-0.598,3.255-0.283c2.036,0.633,3.403,1.919,4.743,3.119c0.66,0.621,1.297,1.237,1.917,1.896
		c0.593,0.627,1.211,1.24,1.846,1.825c0.635,0.584,1.291,1.146,1.974,1.644c0.672,0.486,1.427,0.947,2.078,1.067l-0.26,0.04
		c0.957-0.348,1.9-0.633,2.889-0.843c0.489-0.113,0.994-0.186,1.503-0.236l0.776-0.037l0.808,0.098
		c0.51,0.103,1.005,0.331,1.448,0.554c0.448,0.229,0.873,0.48,1.294,0.721c0.421,0.24,0.84,0.471,1.271,0.644
		c0.428,0.168,0.878,0.288,1.299,0.213c0.394-0.078,0.9-0.321,1.306-0.509c0.437-0.208,0.881-0.433,1.359-0.598
		c0.243-0.075,0.479-0.164,0.738-0.187l0.38-0.054l0.385,0.018c0.259-0.008,0.504,0.065,0.749,0.131
		c0.251,0.059,0.474,0.138,0.708,0.212c0.92,0.261,1.891,0.42,2.852,0.436c0.479,0.008,0.966-0.029,1.411-0.169
		c0.462-0.115,0.796-0.502,0.669-0.955l-0.001-0.001L132.629,66.278z M132.824,66.24c0.041,0.252,0.061,0.565-0.139,0.78
		c-0.167,0.225-0.414,0.345-0.652,0.429c-0.486,0.16-0.989,0.2-1.483,0.199c-0.993-0.005-1.97-0.151-2.933-0.412
		c-0.23-0.073-0.473-0.146-0.699-0.19c-0.229-0.054-0.456-0.115-0.69-0.099l-0.349-0.006l-0.343,0.062
		c-0.231,0.025-0.451,0.118-0.673,0.193c-0.441,0.168-0.865,0.398-1.302,0.625c-0.472,0.231-0.844,0.445-1.401,0.593
		c-0.546,0.124-1.088,0.001-1.57-0.158c-0.487-0.165-0.938-0.385-1.378-0.604c-0.882-0.435-1.722-0.912-2.606-1.059l-0.65-0.042
		l-0.685,0.071c-0.457,0.071-0.92,0.162-1.376,0.294c-0.912,0.242-1.826,0.583-2.685,0.954l-0.131,0.057l-0.129-0.017
		c-1.109-0.143-1.903-0.645-2.691-1.123c-0.776-0.497-1.497-1.046-2.197-1.615c-0.698-0.572-1.373-1.164-2.03-1.782
		c-0.621-0.598-1.278-1.185-1.93-1.744c-1.302-1.093-2.712-2.183-4.095-2.556c-0.687-0.177-1.293-0.092-1.893,0.21
		c-0.596,0.323-1.168,0.858-1.689,1.472c-1.048,1.237-1.909,2.756-2.736,4.268c-0.818,1.529-1.576,3.107-2.325,4.693l-2.219,4.79
		c-0.801,1.616-1.557,3.254-2.536,4.784c-0.441,0.79-0.962,1.535-1.495,2.271l-0.788,1.112l-0.878,1.05
		c-0.296,0.347-0.578,0.706-0.887,1.042l-0.968,0.975c-0.621,0.674-1.36,1.233-2.056,1.833c-1.463,1.117-3.034,2.123-4.764,2.833
		c-1.742,0.697-3.542,1.173-5.561,1.115c-0.858-0.092-1.81-0.142-2.701-0.282c-0.897-0.193-1.811-0.293-2.683-0.595
		c-1.781-0.45-3.459-1.254-5.041-2.172c-1.58-0.939-2.979-2.155-4.212-3.498c-1.23-1.362-2.268-2.84-3.04-4.564l-0.528-1.179
		l1.23,0.469l3.103,1.181l1.587,0.462c0.529,0.158,1.058,0.321,1.601,0.395c2.14,0.513,4.39,0.527,6.456-0.082
		c2.079-0.615,3.829-2.041,5.199-3.753c1.387-1.715,2.454-3.685,3.485-5.662l3.023-6.005c1.008-2.009,2.105-3.978,3.279-5.911
		c1.196-1.921,2.515-3.78,4.017-5.512c1.549-1.681,3.219-3.308,5.193-4.55c1.968-1.215,4.087-2.273,6.353-2.809
		c1.11-0.365,2.264-0.485,3.403-0.694c1.144-0.161,2.299-0.171,3.447-0.25c1.146,0.042,2.292,0.042,3.436,0.121
		c1.14,0.141,2.292,0.256,3.415,0.423l3.298,0.644c1.145,0.291,2.207,0.602,3.311,0.902c1.091,0.313,2.143,0.763,3.212,1.138
		c1.062,0.402,2.067,0.947,3.1,1.411c0.991,0.553,1.982,1.112,2.927,1.734c0.917,0.67,1.865,1.292,2.69,2.073
		c0.879,0.714,1.634,1.563,2.422,2.369l1.066,1.315c0.346,0.444,0.641,0.928,0.963,1.39C131.44,61.937,132.406,64.013,132.824,66.24
		z"/>
</g>
<g>
	<path fill="#010202" d="M132.727,66.263c0.809-1.374,1.783-2.653,2.871-3.833c0.545-0.589,1.11-1.167,1.726-1.692
		c0.597-0.546,1.251-1.034,1.927-1.494c0.346-0.218,0.686-0.45,1.048-0.645l1.112-0.547c0.774-0.298,1.557-0.606,2.395-0.741
		l0.621-0.129l0.635-0.043c0.424-0.005,0.854-0.087,1.275-0.017l1.275,0.143l1.174,0.212c1.551,0.283,3.097,0.518,4.64,0.686
		c0.771,0.074,1.538,0.125,2.302,0.139c0.762,0.007,1.518-0.025,2.262-0.103c0.371-0.044,0.736-0.114,1.104-0.168l1.077-0.253
		c0.347-0.119,0.699-0.222,1.042-0.349c0.334-0.152,0.678-0.279,1.003-0.446c0.651-0.335,1.276-0.726,1.87-1.167
		c0.287-0.236,0.586-0.456,0.865-0.704l0.82-0.768l4.356-4.083l-2.774,5.248c-0.418,0.792-0.852,1.514-1.318,2.243
		c-0.461,0.725-0.943,1.437-1.445,2.135c-1.006,1.396-2.095,2.741-3.305,3.993c-1.218,1.241-2.568,2.385-4.106,3.306
		c-0.778,0.447-1.604,0.833-2.479,1.114c-0.881,0.272-1.82,0.396-2.757,0.369c-0.931-0.002-1.89-0.293-2.692-0.592l-2.354-0.886
		c-1.564-0.582-3.142-1.134-4.74-1.583c-0.797-0.23-1.6-0.443-2.41-0.597c-0.811-0.169-1.629-0.261-2.451-0.289
		c-0.813,0.006-1.648,0.042-2.426,0.312C134.085,65.273,133.349,65.688,132.727,66.263z M132.727,66.263
		c0.545-0.644,1.242-1.168,2.033-1.522c0.793-0.359,1.662-0.479,2.52-0.563c0.859-0.05,1.726-0.032,2.576,0.065
		c0.854,0.082,1.699,0.223,2.536,0.387c1.671,0.352,3.306,0.806,4.932,1.291c0.815,0.244,1.616,0.509,2.413,0.771
		c0.783,0.245,1.469,0.419,2.231,0.389c1.491-0.013,2.958-0.587,4.29-1.412c1.329-0.847,2.537-1.928,3.644-3.116
		c1.116-1.179,2.14-2.465,3.087-3.807c0.473-0.672,0.929-1.357,1.363-2.055c0.43-0.695,0.861-1.417,1.24-2.106l1.582,1.165
		l-0.926,0.852c-0.318,0.276-0.662,0.527-0.992,0.79c-0.686,0.5-1.414,0.948-2.18,1.331c-0.383,0.192-0.786,0.341-1.179,0.511
		c-0.402,0.145-0.813,0.264-1.221,0.395c-0.415,0.095-0.83,0.192-1.247,0.27c-0.42,0.052-0.839,0.118-1.258,0.155
		c-0.838,0.064-1.672,0.075-2.498,0.043c-0.824-0.04-1.64-0.118-2.449-0.218c-1.612-0.208-3.194-0.552-4.754-0.907l-1.16-0.268
		l-1.088-0.172c-0.361-0.086-0.732-0.017-1.102-0.04l-0.555-0.002l-0.552,0.08c-0.745,0.067-1.466,0.3-2.188,0.522l-1.059,0.436
		c-0.346,0.161-0.68,0.356-1.025,0.526c-0.672,0.375-1.34,0.781-1.961,1.254c-0.638,0.451-1.236,0.96-1.821,1.486
		c-0.585,0.527-1.144,1.085-1.681,1.666C133.732,65.032,133.211,65.631,132.727,66.263z"/>
</g>
<g>
	<path fill="#010202" d="M132.727,66.263c0.629,0.735,1.291,1.437,1.93,2.156c0.635,0.725,1.313,1.408,1.965,2.112
		c0.68,0.679,1.354,1.361,2.045,2.021c0.708,0.64,1.375,1.328,2.11,1.923c0.744,0.578,1.438,1.242,2.228,1.713l1.215,0.813
		c0.204,0.164,0.369,0.224,0.613,0.491c0.237,0.231,0.449,0.474,0.587,0.692c0.634,0.904,1.023,1.86,1.346,2.82
		c0.309,0.961,0.544,1.929,0.745,2.898c0.396,1.939,0.62,3.89,0.754,5.842s0.198,3.905,0.154,5.858
		c-0.049,1.954-0.159,3.907-0.404,5.864c-0.115,0.98-0.285,1.957-0.527,2.944c-0.119,0.493-0.262,0.989-0.457,1.496
		c-0.246,0.51-0.342,1.03-1.104,1.626l-0.928-1.485c0.325-0.19,0.693-0.428,1.033-0.666c0.347-0.239,0.688-0.489,1.026-0.743
		c0.679-0.509,1.323-1.063,1.956-1.632c0.619-0.583,1.219-1.188,1.787-1.824c0.301-0.305,0.553-0.648,0.833-0.971
		c0.282-0.321,0.536-0.664,0.783-1.013c0.244-0.35,0.521-0.681,0.733-1.052l0.687-1.086l0.612-1.133
		c0.215-0.375,0.391-0.767,0.553-1.167c0.164-0.398,0.35-0.791,0.498-1.197l0.396-1.238c0.287-0.823,0.423-1.685,0.643-2.538
		l-0.113,1.312c-0.035,0.44-0.068,0.883-0.178,1.311l-0.269,1.301c-0.106,0.43-0.252,0.849-0.377,1.276
		c-0.122,0.429-0.261,0.853-0.439,1.26l-0.507,1.24l-0.607,1.196c-0.193,0.406-0.452,0.771-0.68,1.158
		c-0.231,0.385-0.47,0.765-0.738,1.124c-0.266,0.36-0.507,0.743-0.795,1.086c-0.555,0.708-1.155,1.375-1.773,2.029
		c-0.633,0.638-1.283,1.262-1.975,1.843c-0.344,0.292-0.694,0.578-1.062,0.846c-0.368,0.275-0.727,0.527-1.147,0.792l-0.928-1.485
		c0.027,0.004,0.279-0.438,0.393-0.803c0.138-0.397,0.25-0.833,0.342-1.279c0.189-0.892,0.309-1.824,0.416-2.757
		c0.215-1.87,0.301-3.772,0.326-5.671c0.023-1.9,0.012-3.804-0.106-5.698c-0.122-1.893-0.3-3.782-0.599-5.635
		c-0.16-0.923-0.352-1.837-0.603-2.721c-0.267-0.871-0.571-1.735-1.009-2.436c-0.11-0.198-0.218-0.317-0.311-0.437
		c-0.049-0.123-0.325-0.293-0.486-0.438l-1.145-0.86c-0.843-0.567-1.493-1.305-2.223-1.967c-0.713-0.676-1.337-1.426-2.007-2.133
		c-0.63-0.742-1.234-1.503-1.844-2.256c-0.58-0.777-1.185-1.533-1.741-2.325C133.781,67.886,133.253,67.071,132.727,66.263z"/>
</g>
<g>
	<path fill="#010202" d="M152.865,99.584c0.799,2.481,1.419,5.021,1.922,7.584c0.25,1.282,0.486,2.57,0.659,3.868
		c0.195,1.295,0.333,2.601,0.435,3.911l0.105,1.971l0.011,1.979c0.021,0.661-0.056,1.322-0.083,1.984
		c-0.023,0.663-0.092,1.324-0.2,1.984c-0.097,0.661-0.165,1.325-0.345,1.976c-0.176,0.649-0.262,1.32-0.516,1.955
		c-0.236,0.633-0.448,1.295-0.709,1.905l-0.792,1.785l-3.235,7.103c-1.057,2.366-2.058,4.748-2.967,7.151
		c-0.454,1.203-0.861,2.417-1.242,3.636l-0.523,1.839l-0.436,1.854l-0.335,1.865l-0.227,1.872l-0.097,1.873l0.057,1.864
		l-1.879-0.323c0.933-1.995,1.88-3.953,2.91-5.885c0.497-0.973,1.02-1.934,1.574-2.879c0.541-0.952,1.078-1.905,1.678-2.828
		c0.596-0.925,1.133-1.878,1.804-2.765l0.965-1.35l0.484-0.673l0.556-0.635l1.122-1.261l1.078-1.185
		c0.688-0.795,1.249-1.599,1.827-2.512c0.555-0.9,1.085-1.825,1.562-2.783c0.507-0.941,0.947-1.922,1.397-2.897
		c0.436-0.983,0.857-1.974,1.25-2.979c0.397-1.002,0.777-2.013,1.153-3.026c1.489-4.06,2.722-8.218,3.765-12.433
		c-0.641,4.3-1.692,8.532-2.911,12.716c-0.621,2.09-1.327,4.158-2.13,6.195c-0.414,1.014-0.816,2.035-1.295,3.027
		c-0.458,1-0.977,1.979-1.528,2.943c-0.299,0.476-0.554,0.957-0.892,1.428c-0.338,0.456-0.662,0.981-1.021,1.377l-0.532,0.616
		l-0.541,0.641l-1.002,1.206l-0.506,0.598l-0.451,0.657l-0.902,1.316c-0.625,0.857-1.138,1.809-1.698,2.719
		c-0.565,0.909-1.075,1.856-1.588,2.801c-0.522,0.939-1.022,1.892-1.511,2.852c-1,1.904-1.93,3.861-2.822,5.802l-1.727,3.758
		l-0.15-4.081l-0.076-2.038l0.092-2.027c0.078-0.668,0.146-1.339,0.24-2.004l0.368-1.975l0.47-1.944l0.557-1.913
		c0.404-1.262,0.834-2.513,1.307-3.743c0.935-2.465,2.018-4.857,3.127-7.224c1.113-2.363,2.256-4.71,3.395-7.036l0.848-1.758
		c0.27-0.578,0.468-1.153,0.709-1.731c0.254-0.568,0.352-1.202,0.537-1.8c0.189-0.6,0.273-1.231,0.386-1.855l0.167-0.938
		l0.103-0.951c0.056-0.636,0.159-1.268,0.167-1.911l0.077-1.925l-0.017-1.932c-0.05-1.288-0.082-2.581-0.202-3.87
		c-0.091-1.292-0.245-2.58-0.412-3.866c-0.17-1.286-0.37-2.57-0.604-3.848C153.403,102.131,153.158,100.853,152.865,99.584z"/>
</g>
<g>
	<path fill="#010202" d="M179.781,131.515c0.041,0.487,0.142,0.964,0.28,1.429c0.142,0.466,0.309,0.922,0.491,1.373
		c0.37,0.899,0.785,1.779,1.229,2.645c0.891,1.729,1.863,3.417,2.891,5.064l0.703,1.126l-0.945-0.914
		c-0.409-0.396-0.531-0.896-0.643-1.367c-0.097-0.479-0.151-0.961-0.164-1.441c-0.049-0.961,0.012-1.919,0.113-2.869
		c0.105-0.95,0.246-1.896,0.451-2.83c0.188-0.937,0.428-1.863,0.705-2.777c0.274-0.916,0.59-1.82,0.954-2.707
		c0.358-0.888,0.761-1.761,1.222-2.605c0.101-0.2,0.252-0.452,0.311-0.61l0.285-0.651c0.092-0.217,0.196-0.434,0.277-0.652
		l0.164-0.657c0.262-0.852,0.35-1.796,0.486-2.712c0.053-0.934,0.158-1.862,0.143-2.803c0.012-0.938,0.007-1.876-0.047-2.817
		c-0.067-1.879-0.258-3.756-0.45-5.63c-0.438-3.743-1.046-7.484-1.825-11.162l-0.625-2.954l1.663,2.466
		c0.267,0.396,0.581,0.784,0.806,1.191c0.232,0.406,0.49,0.805,0.693,1.219c0.441,0.818,0.836,1.65,1.23,2.482
		c0.765,1.672,1.475,3.361,2.162,5.058c1.355,3.401,2.623,6.824,3.815,10.288l-1.407,0.083c0.073-0.818,0.258-1.595,0.246-2.444
		c0.022-0.836,0.078-1.667,0.037-2.514c-0.029-0.845-0.016-1.686-0.082-2.533l-0.157-2.539c-0.146-1.694-0.286-3.387-0.481-5.08
		c-0.172-1.693-0.393-3.384-0.59-5.076c-0.862-6.761-1.906-13.517-3.1-20.226l-0.614-3.446l2.249,2.81l0.407,0.51
		c0.144,0.169,0.251,0.344,0.421,0.512l0.988,1.01c0.704,0.651,1.401,1.31,2.146,1.933c1.464,1.263,2.99,2.489,4.525,3.663
		l4.111,3.142l-4.893-1.519c-0.217-0.067-0.498-0.253-0.608-0.382c-0.071-0.089-0.14-0.181-0.205-0.275
		c-0.126-0.187-0.165-0.302-0.249-0.458c-0.123-0.275-0.235-0.542-0.324-0.798c-0.193-0.519-0.35-1.023-0.506-1.53l-0.879-3.019
		c-0.566-2.005-1.129-4.002-1.73-5.983c-1.203-3.958-2.533-7.879-4.283-11.567c-0.871-1.842-1.881-3.607-3.071-5.188
		c-0.313-0.375-0.608-0.777-0.951-1.116c-0.157-0.157-0.353-0.393-0.478-0.488l-0.586-0.516c-0.39-0.347-0.782-0.708-1.168-0.938
		c-0.396-0.251-0.742-0.563-1.188-0.76c-0.836-0.465-1.716-0.85-2.635-1.062l-0.688-0.165l-0.702-0.076
		c-0.467-0.08-0.94-0.031-1.412-0.041c-0.94,0.073-1.881,0.238-2.785,0.552c-0.885,0.308-1.81,0.76-2.504,1.254l-0.989,0.703
		l-0.498-1.084c-0.524-1.14-1.139-2.32-1.794-3.44c-0.648-1.132-1.357-2.229-2.09-3.309l-1.146-1.583l-1.216-1.527
		c-0.844-0.987-1.7-1.966-2.643-2.853l-0.691-0.681l-0.738-0.625c-0.498-0.409-0.966-0.86-1.504-1.211
		c-0.527-0.365-1.036-0.762-1.576-1.104l-1.662-0.957c-1.152-0.533-2.301-1.106-3.534-1.406c-1.176-0.399-2.52-0.615-3.811-0.888
		c-1.284-0.242-2.583-0.465-3.894-0.672l-3.951-0.629c-1.324-0.223-2.652-0.484-3.977-0.796c-1.322-0.34-2.639-0.733-3.917-1.248
		c-1.276-0.517-2.517-1.131-3.691-1.847c-1.184-0.707-2.28-1.53-3.354-2.376l-1.539-1.345c-0.51-0.451-0.97-0.949-1.457-1.421
		c-0.991-0.933-1.822-1.997-2.739-2.988l1.433-0.691c0.233,1.177,0.555,2.39,0.909,3.563c0.361,1.177,0.764,2.343,1.248,3.466
		c0.113,0.286,0.244,0.561,0.373,0.836c0.132,0.274,0.25,0.558,0.398,0.822c0.274,0.543,0.573,1.069,0.897,1.575
		c0.148,0.264,0.335,0.495,0.506,0.739c0.172,0.245,0.346,0.487,0.546,0.701c0.198,0.214,0.374,0.459,0.589,0.651l0.638,0.586
		l1.726,1.589l-2.272-0.303c-2.826-0.377-5.689-0.662-8.544-0.888c-2.857-0.227-5.721-0.374-8.583-0.415
		c-1.431-0.038-2.86-0.003-4.289,0.02c-1.426,0.061-2.853,0.122-4.268,0.273c-0.712,0.047-1.413,0.158-2.114,0.263l-1.053,0.154
		l-1.032,0.227c-0.691,0.146-1.379,0.299-2.028,0.549L94.69,34.19c-0.285,0.122-0.639,0.299-0.956,0.445
		c-0.668,0.29-1.283,0.63-1.885,0.983c-0.615,0.331-1.214,0.714-1.812,1.106c-0.604,0.376-1.194,0.78-1.775,1.197
		c-0.587,0.408-1.171,0.822-1.743,1.255c-2.308,1.703-4.556,3.5-6.847,5.249c-1.15,0.869-2.301,1.739-3.487,2.565
		c-0.582,0.427-1.19,0.819-1.795,1.215c-0.596,0.408-1.217,0.781-1.846,1.14l-0.939,0.545l-0.976,0.482
		c-0.327,0.156-0.645,0.331-0.979,0.472l-1.019,0.389c-1.351,0.544-2.808,0.79-4.263,0.845l0.072-0.225
		c0.586,0.404,1.201,0.786,1.838,1.117c0.32,0.163,0.631,0.347,0.965,0.482c0.33,0.143,0.656,0.298,0.99,0.431l1.021,0.352
		c0.335,0.137,0.698,0.174,1.046,0.266l0.528,0.119c0.174,0.051,0.357,0.038,0.536,0.06l1.081,0.083l-1.083-0.053
		c-0.18-0.017-0.364,0.001-0.541-0.045l-0.533-0.104c-0.352-0.083-0.72-0.111-1.06-0.238l-1.039-0.325
		c-0.34-0.125-0.672-0.271-1.009-0.406c-0.341-0.127-0.659-0.303-0.987-0.458c-0.654-0.317-1.281-0.682-1.896-1.08l-0.306-0.198
		l0.378-0.027c1.417-0.1,2.821-0.371,4.137-0.931l0.99-0.402c0.325-0.145,0.636-0.325,0.954-0.485L71.4,49.52l0.916-0.559
		c0.613-0.367,1.218-0.748,1.802-1.166c0.59-0.405,1.184-0.805,1.753-1.242c1.159-0.845,2.286-1.735,3.413-2.625
		c2.247-1.792,4.457-3.638,6.744-5.402c0.566-0.448,1.147-0.879,1.733-1.305c0.579-0.434,1.167-0.856,1.776-1.254
		c0.598-0.411,1.202-0.816,1.848-1.182c0.632-0.388,1.27-0.755,1.918-1.052c0.334-0.16,0.622-0.312,0.995-0.479l1.049-0.371
		c0.695-0.275,1.41-0.444,2.125-0.606l1.072-0.25l1.081-0.173c0.721-0.118,1.441-0.239,2.165-0.298
		c1.446-0.173,2.894-0.255,4.342-0.335c1.448-0.042,2.897-0.096,4.343-0.077c2.894,0.004,5.784,0.115,8.667,0.306
		c2.886,0.191,5.756,0.438,8.641,0.785l-0.547,1.286l-0.76-0.679c-0.256-0.225-0.455-0.491-0.686-0.735
		c-0.231-0.244-0.428-0.509-0.621-0.776s-0.403-0.526-0.568-0.808c-0.361-0.548-0.689-1.111-0.99-1.686
		c-0.163-0.282-0.291-0.578-0.435-0.868c-0.141-0.291-0.283-0.582-0.406-0.879c-0.526-1.178-0.96-2.386-1.352-3.605
		c-0.387-1.227-0.728-2.441-1-3.726l-0.602-2.84l2.035,2.149c0.9,0.951,1.732,1.976,2.687,2.865c0.471,0.451,0.916,0.932,1.405,1.36
		l1.473,1.275c1.021,0.795,2.057,1.568,3.163,2.222c1.101,0.664,2.254,1.229,3.445,1.706c1.193,0.474,2.432,0.839,3.688,1.157
		c1.267,0.293,2.552,0.541,3.853,0.754l3.938,0.609c1.318,0.203,2.643,0.424,3.975,0.669c1.312,0.273,2.607,0.467,3.963,0.907
		c1.359,0.332,2.616,0.943,3.872,1.523l1.802,1.027c0.585,0.366,1.131,0.785,1.698,1.176c0.579,0.378,1.077,0.85,1.608,1.284
		l0.787,0.663l0.734,0.715c1,0.935,1.904,1.957,2.793,2.988c0.424,0.53,0.862,1.052,1.276,1.59l1.2,1.645
		c0.767,1.12,1.508,2.256,2.188,3.431c0.692,1.175,1.317,2.354,1.909,3.629l-1.487-0.382c1.002-0.718,1.975-1.172,3.048-1.563
		c1.064-0.375,2.187-0.583,3.319-0.672c0.568,0.002,1.14-0.047,1.705,0.039l0.851,0.092l0.832,0.19
		c1.108,0.256,2.162,0.703,3.14,1.251c0.508,0.234,0.957,0.616,1.432,0.931c0.5,0.326,0.871,0.675,1.258,1.021l0.584,0.519
		c0.276,0.238,0.405,0.416,0.615,0.626c0.394,0.398,0.718,0.839,1.067,1.264c1.31,1.752,2.362,3.629,3.263,5.553
		c1.805,3.85,3.137,7.848,4.338,11.857c0.601,2.006,1.158,4.02,1.715,6.024l0.854,2.982c0.149,0.488,0.3,0.979,0.468,1.437
		c0.08,0.235,0.172,0.449,0.259,0.649c0.04,0.072,0.096,0.203,0.119,0.229c0.011,0.012,0.018,0.025,0.022,0.042
		c-0.02-0.039-0.18-0.164-0.294-0.155l-0.781,1.623c-1.573-1.213-3.1-2.451-4.6-3.755c-0.757-0.638-1.482-1.329-2.215-2.012
		l-1.063-1.096c-0.179-0.178-0.341-0.417-0.511-0.625l-0.5-0.646l1.635-0.636c1.174,6.759,2.189,13.527,3.029,20.335
		c0.409,3.405,0.744,6.82,0.972,10.253l0.126,2.582c0.057,0.858,0.033,1.729,0.051,2.592c0.029,0.862-0.037,1.74-0.072,2.611
		c0,0.865-0.207,1.769-0.307,2.649l-0.367,3.238l-1.04-3.154c-1.137-3.445-2.356-6.878-3.657-10.266
		c-0.658-1.691-1.341-3.372-2.071-5.025c-0.376-0.819-0.753-1.64-1.166-2.432c-0.194-0.408-0.429-0.777-0.644-1.166
		c-0.211-0.395-0.476-0.718-0.709-1.082l1.037-0.488c0.743,3.75,1.304,7.508,1.699,11.3c0.078,0.95,0.182,1.897,0.232,2.85
		c0.051,0.953,0.117,1.904,0.121,2.86c0.035,0.954,0.02,1.911-0.014,2.869c-0.004,0.956-0.131,1.915-0.206,2.871
		c-0.165,0.954-0.267,1.904-0.583,2.865l-0.204,0.716c-0.089,0.224-0.196,0.433-0.292,0.649l-0.299,0.646
		c-0.127,0.278-0.23,0.429-0.348,0.649c-0.465,0.809-0.875,1.653-1.244,2.514c-0.375,0.859-0.703,1.74-0.991,2.634
		c-0.292,0.893-0.546,1.799-0.752,2.716c-0.222,0.914-0.378,1.842-0.503,2.773c-0.119,0.931-0.197,1.87-0.17,2.803
		c0.033,0.901,0.092,1.942,0.627,2.568l-0.242,0.213c-0.996-1.683-1.916-3.403-2.763-5.162c-0.419-0.881-0.812-1.776-1.157-2.688
		c-0.17-0.458-0.324-0.92-0.453-1.392C179.895,132.482,179.809,132.001,179.781,131.515z"/>
</g>
<g>
	<path fill="#010202" d="M182.424,123.406c-0.282,1.549-0.621,3.09-1.02,4.615c-0.395,1.527-0.821,3.047-1.291,4.558
		c-0.489,1.505-1.017,3-1.645,4.467c-0.301,0.738-0.645,1.463-1.001,2.182c-0.376,0.713-0.759,1.424-1.214,2.108
		c-0.205,0.352-0.462,0.681-0.718,1.011c-0.252,0.338-0.512,0.664-0.769,0.948l-1.555,1.777c-1.041,1.175-2.078,2.345-3.064,3.539
		c-0.979,1.197-1.928,2.413-2.709,3.677c-0.772,1.249-1.378,2.636-1.263,3.785l0.12,1.205l-1.17-0.104
		c-0.225-0.02-0.358-0.044-0.525-0.077c-0.159-0.031-0.314-0.069-0.468-0.113c-0.308-0.085-0.606-0.201-0.899-0.332
		c-0.584-0.267-1.131-0.654-1.588-1.132c-0.121-0.113-0.226-0.241-0.326-0.373c-0.098-0.133-0.213-0.255-0.291-0.4
		c-0.176-0.279-0.336-0.565-0.452-0.867c-0.144-0.295-0.206-0.604-0.3-0.909c-0.074-0.306-0.108-0.612-0.16-0.918l1.706,0.548
		c-0.31,0.348-0.63,0.743-0.936,1.125c-0.306,0.388-0.602,0.784-0.892,1.183c-0.285,0.402-0.566,0.807-0.83,1.221
		c-0.265,0.412-0.525,0.826-0.763,1.25c-0.244,0.421-0.462,0.85-0.662,1.284c-0.113,0.214-0.181,0.436-0.273,0.654
		c-0.095,0.218-0.173,0.438-0.229,0.658c-0.057,0.219-0.152,0.441-0.175,0.657c-0.03,0.216-0.09,0.438-0.103,0.649l-0.014,0.625
		c0.038,0.192,0.069,0.383,0.096,0.579l-1.665,0.305c-0.033-1.002-0.038-1.968-0.005-2.947c0.026-0.976,0.051-1.95,0.133-2.922
		c0.07-0.972,0.112-1.945,0.258-2.91l0.184-1.45c0.068-0.482,0.104-0.967,0.201-1.445c0.176-0.959,0.363-1.915,0.559-2.867
		c0.163-0.958,0.505-1.882,0.748-2.821l0.398-1.399c0.113-0.471,0.342-0.91,0.508-1.365l1.115-2.68l-0.79,2.785
		c-0.122,0.464-0.307,0.908-0.378,1.387l-0.268,1.416c-0.154,0.947-0.406,1.871-0.48,2.831c-0.1,0.954-0.209,1.904-0.328,2.851
		c-0.064,0.473-0.067,0.955-0.104,1.431l-0.087,1.431c-0.075,0.952-0.067,1.91-0.095,2.864c-0.035,0.955-0.014,1.909,0.005,2.862
		c0.006,0.949,0.074,1.913,0.126,2.837l-1.665,0.305l-0.185-0.922c-0.016-0.301-0.011-0.6-0.012-0.9
		c0.012-0.295,0.072-0.573,0.109-0.86c0.029-0.292,0.127-0.547,0.191-0.822s0.15-0.536,0.25-0.79
		c0.098-0.253,0.177-0.521,0.294-0.762c0.212-0.497,0.442-0.982,0.694-1.449c0.25-0.47,0.512-0.93,0.793-1.375
		c0.279-0.448,0.574-0.881,0.873-1.313c0.305-0.426,0.613-0.848,0.934-1.262c0.326-0.416,0.643-0.814,1.005-1.23l1.292-1.482
		l0.414,2.029c0.045,0.219,0.068,0.446,0.121,0.658c0.07,0.204,0.108,0.425,0.209,0.608c0.074,0.199,0.181,0.376,0.291,0.549
		c0.045,0.094,0.123,0.162,0.183,0.245c0.062,0.082,0.125,0.161,0.202,0.228c0.283,0.292,0.626,0.531,1.01,0.714
		c0.195,0.087,0.395,0.169,0.602,0.228c0.104,0.031,0.207,0.058,0.311,0.079c0.094,0.021,0.224,0.04,0.266,0.045l-1.05,1.101
		c-0.094-1.009,0.131-1.929,0.425-2.76c0.318-0.82,0.717-1.57,1.159-2.269c0.877-1.408,1.897-2.654,2.948-3.854
		c1.049-1.2,2.131-2.352,3.207-3.499l1.619-1.708c0.283-0.287,0.524-0.565,0.756-0.848c0.238-0.28,0.48-0.558,0.687-0.878
		c0.446-0.605,0.839-1.26,1.228-1.921c0.367-0.674,0.756-1.342,1.09-2.041c0.35-0.692,0.68-1.396,0.99-2.109
		c0.326-0.708,0.607-1.436,0.922-2.151C180.441,129.373,181.455,126.401,182.424,123.406z"/>
</g>
<g>
	<path fill="#010202" d="M93.043,48.512c-0.992,0.443-1.954,0.949-2.929,1.418c-0.969,0.485-1.93,0.982-2.881,1.498
		c-0.947,0.521-1.896,1.04-2.821,1.596c-0.937,0.537-1.864,1.085-2.775,1.661c-0.927,0.548-1.799,1.181-2.708,1.754
		c-0.88,0.615-1.768,1.218-2.622,1.863c-0.841,0.66-1.708,1.289-2.506,1.995l-1.222,1.029l-1.154,1.096
		c-0.794,0.708-1.467,1.52-2.182,2.292c-0.372,0.377-0.65,0.82-0.983,1.224l-1.006,1.295c-0.68,0.848-1.286,1.707-2.229,2.527
		l-0.652,0.617l-0.728,0.508c-0.486,0.337-0.963,0.689-1.53,0.91c-0.546,0.251-1.088,0.511-1.689,0.624l-0.881,0.218
		c-0.298,0.042-0.602,0.055-0.902,0.081c-1.208,0.127-2.404-0.088-3.55-0.362c-1.118-0.36-2.221-0.776-3.196-1.396
		c-0.997-0.604-1.896-1.256-2.777-2.098l1.394-1.115c0.249,0.4,0.565,0.841,0.873,1.249c0.317,0.411,0.645,0.815,0.988,1.206
		c0.684,0.785,1.413,1.53,2.198,2.208c0.392,0.339,0.799,0.66,1.215,0.967c0.419,0.304,0.853,0.583,1.294,0.85
		c0.891,0.515,1.826,0.955,2.808,1.255c0.487,0.165,0.992,0.27,1.498,0.355c0.507,0.094,1.02,0.118,1.537,0.15
		c0.515-0.005,1.036,0.003,1.552-0.072c0.521-0.035,1.029-0.17,1.545-0.271c0.501-0.156,1.019-0.276,1.505-0.49
		c0.501-0.178,0.98-0.409,1.457-0.65c0.487-0.223,0.93-0.525,1.406-0.779c0.458-0.282,0.897-0.594,1.35-0.892
		c-0.41,0.35-0.812,0.716-1.235,1.056c-0.441,0.315-0.856,0.677-1.333,0.944c-0.463,0.291-0.933,0.573-1.432,0.805
		c-0.483,0.267-1.008,0.443-1.521,0.655c-0.53,0.157-1.058,0.348-1.61,0.439c-0.545,0.13-1.106,0.176-1.667,0.232
		c-0.563,0.017-1.129,0.017-1.692-0.044c-0.562-0.057-1.126-0.137-1.673-0.281c-2.217-0.512-4.238-1.643-5.994-3.027
		c-0.88-0.695-1.712-1.448-2.472-2.269c-0.381-0.409-0.746-0.833-1.101-1.267c-0.354-0.443-0.684-0.87-1.021-1.376l-3.904-5.875
		l5.298,4.759c0.708,0.635,1.587,1.249,2.46,1.737c0.879,0.516,1.821,0.87,2.766,1.166c0.958,0.21,1.933,0.385,2.889,0.266
		c0.239-0.024,0.479-0.033,0.716-0.066l0.695-0.186c0.475-0.083,0.907-0.309,1.346-0.512c0.458-0.162,0.855-0.46,1.263-0.736
		l0.613-0.413l0.531-0.499l0.537-0.494c0.184-0.147,0.358-0.343,0.525-0.566l1.023-1.265l1.002-1.264
		c0.357-0.433,0.674-0.904,1.079-1.29c0.779-0.799,1.522-1.636,2.37-2.351l1.238-1.109l1.297-1.03c0.85-0.707,1.779-1.3,2.673-1.939
		c0.908-0.619,1.844-1.192,2.771-1.776c0.95-0.545,1.887-1.112,2.861-1.61c0.962-0.519,1.932-1.02,2.918-1.487
		c0.983-0.474,1.985-0.907,2.983-1.342C88.938,49.957,90.967,49.16,93.043,48.512z"/>
</g>
<g>
	<path fill="#010202" d="M69.723,54.421c-0.084,0.63-0.22,1.225-0.359,1.818c-0.146,0.59-0.303,1.173-0.483,1.744
		c-0.161,0.579-0.358,1.14-0.558,1.699c-0.176,0.568-0.382,1.122-0.598,1.673c-0.224,0.549-0.413,1.103-0.641,1.646
		c-0.216,0.547-0.486,1.079-0.675,1.628l-0.353,0.81c-0.108,0.272-0.258,0.542-0.358,0.811c-0.207,0.543-0.44,1.09-0.712,1.649
		l0.002-0.037c-0.059,0.273-0.141,0.547-0.222,0.821c-0.094-0.27-0.189-0.54-0.261-0.81l0.002-0.038
		c-0.036-0.616-0.033-1.245-0.003-1.876c-0.003-0.323,0.072-0.615,0.118-0.922l0.162-0.913c0.127-0.608,0.281-1.199,0.473-1.778
		c0.188-0.581,0.372-1.167,0.618-1.722c0.464-1.125,0.998-2.217,1.633-3.257c0.3-0.528,0.662-1.026,1.013-1.527
		C68.893,55.351,69.272,54.864,69.723,54.421z"/>
</g>
<path fill="none" stroke="#010202" stroke-width="2" stroke-miterlimit="10" d="M152.952,142.857c0,0,0.759,10.768,2.985,13.216"/>
<path fill="none" stroke="#010202" stroke-width="2" stroke-miterlimit="10" d="M148.238,151.253c0,0,3.223,4.05,2.9,6.309
	s3.196-5.331,3.196-5.331"/>
</svg>
